#N canvas 0 0 450 300 10;
#X obj 70 300 inlet~;
#X obj 10 300 inlet;
#X obj 130 300 r \$0-read;
#X obj 130 330 faust-control \$0;
#X obj 130 360 s \$0-write;
#X obj 10 360 r \$0-in;
#X obj 10 390 RTSG_Multiple_Instances~;
#X obj 10 420 s \$0-out;
#X obj 70 450 outlet~;
#X obj 130 450 outlet~;
#X obj 10 450 outlet;
#X connect 1 0 3 0;
#X connect 2 0 3 0;
#X connect 3 0 4 0;
#X connect 6 0 7 0;
#X connect 1 0 10 0;
#X connect 5 0 6 0;
#X connect 0 0 6 1;
#X connect 6 1 8 0;
#X connect 6 2 9 0;
#X obj 10 30 hsl 128 15 1 40 0 0 \$0-RTSG-Multiple-Instances/Grains-Rec \$0-RTSG-Multiple-Instances/Grains-Rec Grains-Rec -2 -6 0 10 -262144 -1 -1 0 1;
#X obj 160 30 nbx 5 14 1 40 0 0 \$0-RTSG-Multiple-Instances/Grains-Rec \$0-RTSG-Multiple-Instances/Grains-Rec empty 0 -6 0 10 -262144 -1 -1 256;
#X obj 10 60 hsl 128 15 0 1 0 0 \$0-RTSG-Multiple-Instances/Grains-Amp-In \$0-RTSG-Multiple-Instances/Grains-Amp-In Grains-Amp-In -2 -6 0 10 -262144 -1 -1 0 1;
#X obj 160 60 nbx 5 14 0 1 0 0 \$0-RTSG-Multiple-Instances/Grains-Amp-In \$0-RTSG-Multiple-Instances/Grains-Amp-In empty 0 -6 0 10 -262144 -1 -1 256;
#X obj 10 90 hsl 128 15 0 10 0 0 \$0-RTSG-Multiple-Instances/Grains-Amp-Out \$0-RTSG-Multiple-Instances/Grains-Amp-Out Grains-Amp-Out -2 -6 0 10 -262144 -1 -1 0 1;
#X obj 160 90 nbx 5 14 0 10 0 0 \$0-RTSG-Multiple-Instances/Grains-Amp-Out \$0-RTSG-Multiple-Instances/Grains-Amp-Out empty 0 -6 0 10 -262144 -1 -1 256;
#X obj 10 120 hsl 128 15 0 1 0 0 \$0-RTSG-Multiple-Instances/Rec-Feedback \$0-RTSG-Multiple-Instances/Rec-Feedback Rec-Feedback -2 -6 0 10 -262144 -1 -1 0 1;
#X obj 160 120 nbx 5 14 0 1 0 0 \$0-RTSG-Multiple-Instances/Rec-Feedback \$0-RTSG-Multiple-Instances/Rec-Feedback empty 0 -6 0 10 -262144 -1 -1 256;
#X obj 10 150 hsl 128 15 1 200 0 0 \$0-RTSG-Multiple-Instances/Grains-Window \$0-RTSG-Multiple-Instances/Grains-Window Grains-Window -2 -6 0 10 -262144 -1 -1 0 1;
#X obj 160 150 nbx 5 14 1 200 0 0 \$0-RTSG-Multiple-Instances/Grains-Window \$0-RTSG-Multiple-Instances/Grains-Window empty 0 -6 0 10 -262144 -1 -1 256;
#X obj 10 180 hsl 128 15 1 100 0 0 \$0-RTSG-Multiple-Instances/Grains-Freq \$0-RTSG-Multiple-Instances/Grains-Freq Grains-Freq -2 -6 0 10 -262144 -1 -1 0 1;
#X obj 160 180 nbx 5 14 1 100 0 0 \$0-RTSG-Multiple-Instances/Grains-Freq \$0-RTSG-Multiple-Instances/Grains-Freq empty 0 -6 0 10 -262144 -1 -1 256;
#X obj 10 210 hsl 128 15 1 100 0 0 \$0-RTSG-Multiple-Instances/Grains-Freq \$0-RTSG-Multiple-Instances/Grains-Freq Grains-Freq -2 -6 0 10 -262144 -1 -1 0 1;
#X obj 160 210 nbx 5 14 1 100 0 0 \$0-RTSG-Multiple-Instances/Grains-Freq \$0-RTSG-Multiple-Instances/Grains-Freq empty 0 -6 0 10 -262144 -1 -1 256;
#X obj 197 3 bng 15 250 50 1 \$0-init \$0-ignore empty 0 -6 0 10 -262144 -1 -1;
#X obj 217 3 tgl 15 1 \$0-active \$0-active empty 0 -6 0 10 -262144 -1 -1 1 1;
#X obj 450 10 r \$0-init;
#X obj 818 10 s \$0-in;
#X obj 1002 10 s \$0-read;
#X obj 1186 10 r \$0-write;
#X msg 450 30 1;
#X obj 450 50 s \$0-active;
#X connect 31 0 32 0;
#X obj 818 30 r \$0-active;
#X msg 818 50 active \$1;
#X connect 33 0 34 0;
#X connect 34 0 28 0;
#X obj 1186 30 route active;
#X obj 1186 50 s \$0-active;
#X connect 30 0 35 0;
#X connect 35 0 36 0;
#X msg 450 70 1;
#X obj 450 90 s \$0-RTSG-Multiple-Instances/Grains-Rec;
#X connect 27 0 37 0;
#X connect 37 0 38 0;
#X obj 818 70 r \$0-RTSG-Multiple-Instances/Grains-Rec;
#X msg 818 90 /RTSG-Multiple-Instances/Grains-Rec \$1;
#X connect 39 0 40 0;
#X connect 40 0 28 0;
#X obj 1186 70 route /RTSG-Multiple-Instances/Grains-Rec;
#X obj 1186 90 s \$0-RTSG-Multiple-Instances/Grains-Rec;
#X connect 35 1 41 0;
#X connect 41 0 42 0;
#X msg 450 110 1;
#X obj 450 130 s \$0-RTSG-Multiple-Instances/Grains-Amp-In;
#X connect 27 0 43 0;
#X connect 43 0 44 0;
#X obj 818 110 r \$0-RTSG-Multiple-Instances/Grains-Amp-In;
#X msg 818 130 /RTSG-Multiple-Instances/Grains-Amp-In \$1;
#X connect 45 0 46 0;
#X connect 46 0 28 0;
#X obj 1186 110 route /RTSG-Multiple-Instances/Grains-Amp-In;
#X obj 1186 130 s \$0-RTSG-Multiple-Instances/Grains-Amp-In;
#X connect 41 1 47 0;
#X connect 47 0 48 0;
#X msg 450 150 0.1;
#X obj 450 170 s \$0-RTSG-Multiple-Instances/Grains-Amp-Out;
#X connect 27 0 49 0;
#X connect 49 0 50 0;
#X obj 818 150 r \$0-RTSG-Multiple-Instances/Grains-Amp-Out;
#X msg 818 170 /RTSG-Multiple-Instances/Grains-Amp-Out \$1;
#X connect 51 0 52 0;
#X connect 52 0 28 0;
#X obj 1186 150 route /RTSG-Multiple-Instances/Grains-Amp-Out;
#X obj 1186 170 s \$0-RTSG-Multiple-Instances/Grains-Amp-Out;
#X connect 47 1 53 0;
#X connect 53 0 54 0;
#X msg 450 190 0;
#X obj 450 210 s \$0-RTSG-Multiple-Instances/Rec-Feedback;
#X connect 27 0 55 0;
#X connect 55 0 56 0;
#X obj 818 190 r \$0-RTSG-Multiple-Instances/Rec-Feedback;
#X msg 818 210 /RTSG-Multiple-Instances/Rec-Feedback \$1;
#X connect 57 0 58 0;
#X connect 58 0 28 0;
#X obj 1186 190 route /RTSG-Multiple-Instances/Rec-Feedback;
#X obj 1186 210 s \$0-RTSG-Multiple-Instances/Rec-Feedback;
#X connect 53 1 59 0;
#X connect 59 0 60 0;
#X msg 450 230 1;
#X obj 450 250 s \$0-RTSG-Multiple-Instances/Grains-Window;
#X connect 27 0 61 0;
#X connect 61 0 62 0;
#X obj 818 230 r \$0-RTSG-Multiple-Instances/Grains-Window;
#X msg 818 250 /RTSG-Multiple-Instances/Grains-Window \$1;
#X connect 63 0 64 0;
#X connect 64 0 28 0;
#X obj 1186 230 route /RTSG-Multiple-Instances/Grains-Window;
#X obj 1186 250 s \$0-RTSG-Multiple-Instances/Grains-Window;
#X connect 59 1 65 0;
#X connect 65 0 66 0;
#X msg 450 270 1;
#X obj 450 290 s \$0-RTSG-Multiple-Instances/Grains-Freq;
#X connect 27 0 67 0;
#X connect 67 0 68 0;
#X obj 818 270 r \$0-RTSG-Multiple-Instances/Grains-Freq;
#X msg 818 290 /RTSG-Multiple-Instances/Grains-Freq \$1;
#X connect 69 0 70 0;
#X connect 70 0 28 0;
#X obj 1186 270 route /RTSG-Multiple-Instances/Grains-Freq;
#X obj 1186 290 s \$0-RTSG-Multiple-Instances/Grains-Freq;
#X connect 65 1 71 0;
#X connect 71 0 72 0;
#X msg 450 310 1;
#X obj 450 330 s \$0-RTSG-Multiple-Instances/Grains-Freq;
#X connect 27 0 73 0;
#X connect 73 0 74 0;
#X obj 818 310 r \$0-RTSG-Multiple-Instances/Grains-Freq;
#X msg 818 330 /RTSG-Multiple-Instances/Grains-Freq \$1;
#X connect 75 0 76 0;
#X connect 76 0 28 0;
#X obj 1186 310 route /RTSG-Multiple-Instances/Grains-Freq;
#X obj 1186 330 s \$0-RTSG-Multiple-Instances/Grains-Freq;
#X connect 71 1 77 0;
#X connect 77 0 78 0;
#X coords 0 -1 1 1 235 230 1 0 0;
#X text 0 250 Generated Sun Dec 26 00:55:26 2021 by faust2pd v2.16. See http://faust.grame.fr and http://purelang.bitbucket.org.;
