#N canvas 117 11 1171 656 10;
#X obj 204 53 catch~ dacA;
#X obj 108 25 adc~ 1;
#X obj 224 83 dac~ 1;
#X obj 301 81 dac~ 2;
#X msg 277 6 \; pd dsp 1;
#X msg 204 6 \; pd dsp 0;
#X obj 129 53 send~ adcA;
#X obj 280 53 catch~ dacB;
#X text 221 -16 DSP ON - DSP OFF;
#X obj 146 347 throw~ dacA;
#X obj 91 275 slll.amp;
#X obj 576 21 slll.player;
#X obj 163 323 throw~ dacB;
#X obj 49 160 slll.grainfreeze;
#X obj 410 348 throw~ dacA;
#X obj 355 276 slll.amp;
#X obj 427 324 throw~ dacB;
#X obj 313 161 slll.grainfreeze;
#X obj 676 349 throw~ dacA;
#X obj 621 277 slll.amp;
#X obj 693 325 throw~ dacB;
#X obj 579 162 slll.grainfreeze;
#X obj 940 350 throw~ dacA;
#X obj 885 278 slll.amp;
#X obj 957 326 throw~ dacB;
#X obj 843 163 slll.grainfreeze;
#X obj 272 376 slll.glitchseq8;
#X obj 348 606 throw~ dacA;
#X obj 293 534 slll.amp;
#X obj 365 582 throw~ dacB;
#X connect 0 0 2 0;
#X connect 1 0 6 0;
#X connect 7 0 3 0;
#X connect 10 0 9 0;
#X connect 10 0 26 0;
#X connect 10 1 12 0;
#X connect 11 0 13 0;
#X connect 11 0 17 0;
#X connect 11 0 21 0;
#X connect 11 0 25 0;
#X connect 11 1 13 1;
#X connect 11 1 17 1;
#X connect 11 1 21 1;
#X connect 11 1 25 1;
#X connect 13 0 10 0;
#X connect 13 1 10 1;
#X connect 15 0 14 0;
#X connect 15 0 26 0;
#X connect 15 1 16 0;
#X connect 17 0 15 0;
#X connect 17 1 15 1;
#X connect 19 0 18 0;
#X connect 19 0 26 0;
#X connect 19 1 20 0;
#X connect 21 0 19 0;
#X connect 21 1 19 1;
#X connect 23 0 22 0;
#X connect 23 0 26 0;
#X connect 23 1 24 0;
#X connect 25 0 23 0;
#X connect 25 1 23 1;
#X connect 26 0 28 0;
#X connect 26 0 28 1;
#X connect 28 0 27 0;
#X connect 28 1 29 0;
