#N canvas 3 106 1366 695 10;
#X obj 204 53 catch~ dacA;
#X obj 108 25 adc~ 1;
#X obj 224 83 dac~ 1;
#X obj 301 81 dac~ 2;
#X msg 277 -1 \; pd dsp 1;
#X msg 204 -1 \; pd dsp 0;
#X obj 129 53 send~ adcA;
#X obj 11 117 receive~ adcA;
#X obj 280 53 catch~ dacB;
#X obj 10 140 slll.glitchseq8;
#X obj 327 116 receive~ adcA;
#X obj 326 139 slll.glitchseq8;
#X obj 72 394 throw~ dacA;
#X obj 152 393 throw~ dacB;
#X obj 69 301 slll.pan;
#X obj 86 346 slll.amp;
#X obj 377 387 throw~ dacA;
#X obj 457 386 throw~ dacB;
#X obj 374 294 slll.pan;
#X obj 391 339 slll.amp;
#X text 221 -23 DSP ON - DSP OFF;
#X obj 877 158 receive~ adcA;
#X obj 890 522 throw~ dacA;
#X obj 970 521 throw~ dacB;
#X obj 901 402 slll.amp;
#X obj 620 314 *~ 50;
#X obj 876 181 slll.grainfreeze;
#X connect 0 0 2 0;
#X connect 1 0 6 0;
#X connect 7 0 9 0;
#X connect 8 0 3 0;
#X connect 9 0 14 0;
#X connect 9 0 14 1;
#X connect 10 0 11 0;
#X connect 11 0 18 0;
#X connect 11 0 18 1;
#X connect 14 0 15 0;
#X connect 14 1 15 1;
#X connect 15 0 12 0;
#X connect 15 1 13 0;
#X connect 18 0 19 0;
#X connect 18 1 19 1;
#X connect 19 0 16 0;
#X connect 19 1 17 0;
#X connect 21 0 26 0;
#X connect 24 0 22 0;
#X connect 24 1 23 0;
#X connect 25 0 24 0;
#X connect 25 0 24 1;
#X connect 26 0 25 0;
