#N canvas 764 225 293 415 12;
#X obj 32 85 slll.matrixtxt;
#X obj 221 361 dac~;
#X obj 31 24 osc~ 440;
#X obj 99 24 osc~ 240;
#X connect 0 0 1 0;
#X connect 0 1 1 1;
#X connect 0 2 1 0;
#X connect 0 3 1 1;
#X connect 0 4 1 0;
#X connect 0 5 1 1;
#X connect 0 6 1 0;
#X connect 0 7 1 1;
#X connect 2 0 0 0;
#X connect 2 0 0 2;
#X connect 2 0 0 4;
#X connect 2 0 0 6;
#X connect 3 0 0 1;
#X connect 3 0 0 3;
#X connect 3 0 0 5;
#X connect 3 0 0 7;
