#N canvas 709 56 336 440 10;
#X obj 121 35 inlet;
#X obj 161 35 inlet;
#X obj 108 108 bng 12 250 50 0 empty empty rec 17 7 0 10 -262144 -1
-1;
#X obj 151 108 bng 12 250 50 0 empty empty stop 17 7 0 10 -262144 -1
-1;
#X obj 122 409 writesf~ 2;
#X obj 99 254 + 1;
#X obj 149 224 + 1;
#X obj 117 287 nbx 5 14 -1e+037 1e+037 0 0 empty empty current_count
0 -8 0 10 -262144 -1 -1 0 256;
#X obj 114 224 f;
#X obj 118 308 makefilename rec%d.wav;
#X msg 111 330 open \$1;
#X obj 115 200 bng 15 250 50 0 empty empty empty 17 7 0 10 -262144
-1 -1;
#X obj 116 177 t b;
#X obj 148 356 t b;
#X msg 148 379 start;
#X msg 193 379 stop;
#X obj 33 35 inlet~;
#X obj 76 35 inlet~;
#X symbolatom 110 135 0 0 0 0 - - -;
#X connect 0 0 2 0;
#X connect 1 0 3 0;
#X connect 2 0 12 0;
#X connect 3 0 15 0;
#X connect 5 0 7 0;
#X connect 6 0 8 1;
#X connect 7 0 9 0;
#X connect 8 0 6 0;
#X connect 8 0 5 0;
#X connect 9 0 10 0;
#X connect 9 0 18 0;
#X connect 10 0 4 0;
#X connect 10 0 13 0;
#X connect 11 0 8 0;
#X connect 12 0 11 0;
#X connect 13 0 14 0;
#X connect 14 0 4 0;
#X connect 15 0 4 0;
#X connect 16 0 4 0;
#X connect 17 0 4 1;
#X coords 0 -1 1 1 100 60 1 100 100;
