#N canvas 214 107 1150 671 10;
#X obj 70 330 inlet~;
#X obj 130 330 inlet~;
#X obj 190 330 inlet~;
#X obj 250 330 inlet~;
#X obj 310 330 inlet~;
#X obj 370 330 inlet~;
#X obj 430 330 inlet~;
#X obj 490 330 inlet~;
#X obj 550 330 r \$0-read;
#X obj 550 360 faust-control \$0;
#X obj 550 390 s \$0-write;
#X obj 10 390 r \$0-in;
#X obj 10 420 matrix~;
#X obj 10 450 s \$0-out;
#X obj 70 480 outlet~;
#X obj 130 480 outlet~;
#X obj 190 480 outlet~;
#X obj 250 480 outlet~;
#X obj 310 480 outlet~;
#X obj 370 480 outlet~;
#X obj 430 480 outlet~;
#X obj 490 480 outlet~;
#X obj 40 26 tgl 15 0 \$0-Matrix-8-x-8/OUT-0/IN-0 \$0-Matrix-8-x-8/OUT-0/IN-0
IN-0 0 -6 0 10 -262144 -1 -1 0 1;
#X obj 90 26 tgl 15 0 \$0-Matrix-8-x-8/OUT-0/IN-1 \$0-Matrix-8-x-8/OUT-0/IN-1
IN-1 0 -6 0 10 -262144 -1 -1 0 1;
#X obj 140 26 tgl 15 0 \$0-Matrix-8-x-8/OUT-0/IN-2 \$0-Matrix-8-x-8/OUT-0/IN-2
IN-2 0 -6 0 10 -262144 -1 -1 0 1;
#X obj 190 26 tgl 15 0 \$0-Matrix-8-x-8/OUT-0/IN-3 \$0-Matrix-8-x-8/OUT-0/IN-3
IN-3 0 -6 0 10 -262144 -1 -1 0 1;
#X obj 240 26 tgl 15 0 \$0-Matrix-8-x-8/OUT-0/IN-4 \$0-Matrix-8-x-8/OUT-0/IN-4
IN-4 0 -6 0 10 -262144 -1 -1 0 1;
#X obj 290 26 tgl 15 0 \$0-Matrix-8-x-8/OUT-0/IN-5 \$0-Matrix-8-x-8/OUT-0/IN-5
IN-5 0 -6 0 10 -262144 -1 -1 0 1;
#X obj 340 26 tgl 15 0 \$0-Matrix-8-x-8/OUT-0/IN-6 \$0-Matrix-8-x-8/OUT-0/IN-6
IN-6 0 -6 0 10 -262144 -1 -1 0 1;
#X obj 390 26 tgl 15 0 \$0-Matrix-8-x-8/OUT-0/IN-7 \$0-Matrix-8-x-8/OUT-0/IN-7
IN-7 0 -6 0 10 -262144 -1 -1 0 1;
#X obj 40 56 tgl 15 0 \$0-Matrix-8-x-8/OUT-1/IN-0 \$0-Matrix-8-x-8/OUT-1/IN-0
IN-0 0 -6 0 10 -262144 -1 -1 0 1;
#X obj 90 56 tgl 15 0 \$0-Matrix-8-x-8/OUT-1/IN-1 \$0-Matrix-8-x-8/OUT-1/IN-1
IN-1 0 -6 0 10 -262144 -1 -1 0 1;
#X obj 140 56 tgl 15 0 \$0-Matrix-8-x-8/OUT-1/IN-2 \$0-Matrix-8-x-8/OUT-1/IN-2
IN-2 0 -6 0 10 -262144 -1 -1 0 1;
#X obj 190 56 tgl 15 0 \$0-Matrix-8-x-8/OUT-1/IN-3 \$0-Matrix-8-x-8/OUT-1/IN-3
IN-3 0 -6 0 10 -262144 -1 -1 0 1;
#X obj 240 56 tgl 15 0 \$0-Matrix-8-x-8/OUT-1/IN-4 \$0-Matrix-8-x-8/OUT-1/IN-4
IN-4 0 -6 0 10 -262144 -1 -1 0 1;
#X obj 290 56 tgl 15 0 \$0-Matrix-8-x-8/OUT-1/IN-5 \$0-Matrix-8-x-8/OUT-1/IN-5
IN-5 0 -6 0 10 -262144 -1 -1 0 1;
#X obj 340 56 tgl 15 0 \$0-Matrix-8-x-8/OUT-1/IN-6 \$0-Matrix-8-x-8/OUT-1/IN-6
IN-6 0 -6 0 10 -262144 -1 -1 0 1;
#X obj 390 56 tgl 15 0 \$0-Matrix-8-x-8/OUT-1/IN-7 \$0-Matrix-8-x-8/OUT-1/IN-7
IN-7 0 -6 0 10 -262144 -1 -1 0 1;
#X obj 40 86 tgl 15 0 \$0-Matrix-8-x-8/OUT-2/IN-0 \$0-Matrix-8-x-8/OUT-2/IN-0
IN-0 0 -6 0 10 -262144 -1 -1 0 1;
#X obj 90 86 tgl 15 0 \$0-Matrix-8-x-8/OUT-2/IN-1 \$0-Matrix-8-x-8/OUT-2/IN-1
IN-1 0 -6 0 10 -262144 -1 -1 0 1;
#X obj 140 86 tgl 15 0 \$0-Matrix-8-x-8/OUT-2/IN-2 \$0-Matrix-8-x-8/OUT-2/IN-2
IN-2 0 -6 0 10 -262144 -1 -1 0 1;
#X obj 190 86 tgl 15 0 \$0-Matrix-8-x-8/OUT-2/IN-3 \$0-Matrix-8-x-8/OUT-2/IN-3
IN-3 0 -6 0 10 -262144 -1 -1 0 1;
#X obj 240 86 tgl 15 0 \$0-Matrix-8-x-8/OUT-2/IN-4 \$0-Matrix-8-x-8/OUT-2/IN-4
IN-4 0 -6 0 10 -262144 -1 -1 0 1;
#X obj 290 86 tgl 15 0 \$0-Matrix-8-x-8/OUT-2/IN-5 \$0-Matrix-8-x-8/OUT-2/IN-5
IN-5 0 -6 0 10 -262144 -1 -1 0 1;
#X obj 340 86 tgl 15 0 \$0-Matrix-8-x-8/OUT-2/IN-6 \$0-Matrix-8-x-8/OUT-2/IN-6
IN-6 0 -6 0 10 -262144 -1 -1 0 1;
#X obj 390 86 tgl 15 0 \$0-Matrix-8-x-8/OUT-2/IN-7 \$0-Matrix-8-x-8/OUT-2/IN-7
IN-7 0 -6 0 10 -262144 -1 -1 0 1;
#X obj 40 116 tgl 15 0 \$0-Matrix-8-x-8/OUT-3/IN-0 \$0-Matrix-8-x-8/OUT-3/IN-0
IN-0 0 -6 0 10 -262144 -1 -1 0 1;
#X obj 90 116 tgl 15 0 \$0-Matrix-8-x-8/OUT-3/IN-1 \$0-Matrix-8-x-8/OUT-3/IN-1
IN-1 0 -6 0 10 -262144 -1 -1 0 1;
#X obj 140 116 tgl 15 0 \$0-Matrix-8-x-8/OUT-3/IN-2 \$0-Matrix-8-x-8/OUT-3/IN-2
IN-2 0 -6 0 10 -262144 -1 -1 0 1;
#X obj 190 116 tgl 15 0 \$0-Matrix-8-x-8/OUT-3/IN-3 \$0-Matrix-8-x-8/OUT-3/IN-3
IN-3 0 -6 0 10 -262144 -1 -1 0 1;
#X obj 240 116 tgl 15 0 \$0-Matrix-8-x-8/OUT-3/IN-4 \$0-Matrix-8-x-8/OUT-3/IN-4
IN-4 0 -6 0 10 -262144 -1 -1 0 1;
#X obj 290 116 tgl 15 0 \$0-Matrix-8-x-8/OUT-3/IN-5 \$0-Matrix-8-x-8/OUT-3/IN-5
IN-5 0 -6 0 10 -262144 -1 -1 0 1;
#X obj 340 116 tgl 15 0 \$0-Matrix-8-x-8/OUT-3/IN-6 \$0-Matrix-8-x-8/OUT-3/IN-6
IN-6 0 -6 0 10 -262144 -1 -1 0 1;
#X obj 390 116 tgl 15 0 \$0-Matrix-8-x-8/OUT-3/IN-7 \$0-Matrix-8-x-8/OUT-3/IN-7
IN-7 0 -6 0 10 -262144 -1 -1 0 1;
#X obj 40 146 tgl 15 0 \$0-Matrix-8-x-8/OUT-4/IN-0 \$0-Matrix-8-x-8/OUT-4/IN-0
IN-0 0 -6 0 10 -262144 -1 -1 0 1;
#X obj 90 146 tgl 15 0 \$0-Matrix-8-x-8/OUT-4/IN-1 \$0-Matrix-8-x-8/OUT-4/IN-1
IN-1 0 -6 0 10 -262144 -1 -1 0 1;
#X obj 140 146 tgl 15 0 \$0-Matrix-8-x-8/OUT-4/IN-2 \$0-Matrix-8-x-8/OUT-4/IN-2
IN-2 0 -6 0 10 -262144 -1 -1 0 1;
#X obj 190 146 tgl 15 0 \$0-Matrix-8-x-8/OUT-4/IN-3 \$0-Matrix-8-x-8/OUT-4/IN-3
IN-3 0 -6 0 10 -262144 -1 -1 0 1;
#X obj 240 146 tgl 15 0 \$0-Matrix-8-x-8/OUT-4/IN-4 \$0-Matrix-8-x-8/OUT-4/IN-4
IN-4 0 -6 0 10 -262144 -1 -1 0 1;
#X obj 290 146 tgl 15 0 \$0-Matrix-8-x-8/OUT-4/IN-5 \$0-Matrix-8-x-8/OUT-4/IN-5
IN-5 0 -6 0 10 -262144 -1 -1 0 1;
#X obj 340 146 tgl 15 0 \$0-Matrix-8-x-8/OUT-4/IN-6 \$0-Matrix-8-x-8/OUT-4/IN-6
IN-6 0 -6 0 10 -262144 -1 -1 0 1;
#X obj 390 146 tgl 15 0 \$0-Matrix-8-x-8/OUT-4/IN-7 \$0-Matrix-8-x-8/OUT-4/IN-7
IN-7 0 -6 0 10 -262144 -1 -1 0 1;
#X obj 40 176 tgl 15 0 \$0-Matrix-8-x-8/OUT-5/IN-0 \$0-Matrix-8-x-8/OUT-5/IN-0
IN-0 0 -6 0 10 -262144 -1 -1 0 1;
#X obj 90 176 tgl 15 0 \$0-Matrix-8-x-8/OUT-5/IN-1 \$0-Matrix-8-x-8/OUT-5/IN-1
IN-1 0 -6 0 10 -262144 -1 -1 0 1;
#X obj 140 176 tgl 15 0 \$0-Matrix-8-x-8/OUT-5/IN-2 \$0-Matrix-8-x-8/OUT-5/IN-2
IN-2 0 -6 0 10 -262144 -1 -1 0 1;
#X obj 190 176 tgl 15 0 \$0-Matrix-8-x-8/OUT-5/IN-3 \$0-Matrix-8-x-8/OUT-5/IN-3
IN-3 0 -6 0 10 -262144 -1 -1 0 1;
#X obj 240 176 tgl 15 0 \$0-Matrix-8-x-8/OUT-5/IN-4 \$0-Matrix-8-x-8/OUT-5/IN-4
IN-4 0 -6 0 10 -262144 -1 -1 0 1;
#X obj 290 176 tgl 15 0 \$0-Matrix-8-x-8/OUT-5/IN-5 \$0-Matrix-8-x-8/OUT-5/IN-5
IN-5 0 -6 0 10 -262144 -1 -1 0 1;
#X obj 340 176 tgl 15 0 \$0-Matrix-8-x-8/OUT-5/IN-6 \$0-Matrix-8-x-8/OUT-5/IN-6
IN-6 0 -6 0 10 -262144 -1 -1 0 1;
#X obj 390 176 tgl 15 0 \$0-Matrix-8-x-8/OUT-5/IN-7 \$0-Matrix-8-x-8/OUT-5/IN-7
IN-7 0 -6 0 10 -262144 -1 -1 0 1;
#X obj 40 206 tgl 15 0 \$0-Matrix-8-x-8/OUT-6/IN-0 \$0-Matrix-8-x-8/OUT-6/IN-0
IN-0 0 -6 0 10 -262144 -1 -1 0 1;
#X obj 90 206 tgl 15 0 \$0-Matrix-8-x-8/OUT-6/IN-1 \$0-Matrix-8-x-8/OUT-6/IN-1
IN-1 0 -6 0 10 -262144 -1 -1 0 1;
#X obj 140 206 tgl 15 0 \$0-Matrix-8-x-8/OUT-6/IN-2 \$0-Matrix-8-x-8/OUT-6/IN-2
IN-2 0 -6 0 10 -262144 -1 -1 0 1;
#X obj 190 206 tgl 15 0 \$0-Matrix-8-x-8/OUT-6/IN-3 \$0-Matrix-8-x-8/OUT-6/IN-3
IN-3 0 -6 0 10 -262144 -1 -1 0 1;
#X obj 240 206 tgl 15 0 \$0-Matrix-8-x-8/OUT-6/IN-4 \$0-Matrix-8-x-8/OUT-6/IN-4
IN-4 0 -6 0 10 -262144 -1 -1 0 1;
#X obj 290 206 tgl 15 0 \$0-Matrix-8-x-8/OUT-6/IN-5 \$0-Matrix-8-x-8/OUT-6/IN-5
IN-5 0 -6 0 10 -262144 -1 -1 0 1;
#X obj 340 206 tgl 15 0 \$0-Matrix-8-x-8/OUT-6/IN-6 \$0-Matrix-8-x-8/OUT-6/IN-6
IN-6 0 -6 0 10 -262144 -1 -1 0 1;
#X obj 390 206 tgl 15 0 \$0-Matrix-8-x-8/OUT-6/IN-7 \$0-Matrix-8-x-8/OUT-6/IN-7
IN-7 0 -6 0 10 -262144 -1 -1 0 1;
#X obj 40 236 tgl 15 0 \$0-Matrix-8-x-8/OUT-7/IN-0 \$0-Matrix-8-x-8/OUT-7/IN-0
IN-0 0 -6 0 10 -262144 -1 -1 0 1;
#X obj 90 236 tgl 15 0 \$0-Matrix-8-x-8/OUT-7/IN-1 \$0-Matrix-8-x-8/OUT-7/IN-1
IN-1 0 -6 0 10 -262144 -1 -1 0 1;
#X obj 140 236 tgl 15 0 \$0-Matrix-8-x-8/OUT-7/IN-2 \$0-Matrix-8-x-8/OUT-7/IN-2
IN-2 0 -6 0 10 -262144 -1 -1 0 1;
#X obj 190 236 tgl 15 0 \$0-Matrix-8-x-8/OUT-7/IN-3 \$0-Matrix-8-x-8/OUT-7/IN-3
IN-3 0 -6 0 10 -262144 -1 -1 0 1;
#X obj 240 236 tgl 15 0 \$0-Matrix-8-x-8/OUT-7/IN-4 \$0-Matrix-8-x-8/OUT-7/IN-4
IN-4 0 -6 0 10 -262144 -1 -1 0 1;
#X obj 290 236 tgl 15 0 \$0-Matrix-8-x-8/OUT-7/IN-5 \$0-Matrix-8-x-8/OUT-7/IN-5
IN-5 0 -6 0 10 -262144 -1 -1 0 1;
#X obj 340 236 tgl 15 0 \$0-Matrix-8-x-8/OUT-7/IN-6 \$0-Matrix-8-x-8/OUT-7/IN-6
IN-6 0 -6 0 10 -262144 -1 -1 0 1;
#X obj 390 236 tgl 15 0 \$0-Matrix-8-x-8/OUT-7/IN-7 \$0-Matrix-8-x-8/OUT-7/IN-7
IN-7 0 -6 0 10 -262144 -1 -1 0 1;
#X obj 450 10 r \$0-init;
#X obj 698 10 s \$0-in;
#X obj 822 10 s \$0-read;
#X obj 946 10 r \$0-write;
#X msg 450 30 1;
#X obj 450 50 s \$0-active;
#X obj 698 30 r \$0-active;
#X msg 698 50 active \$1;
#X obj 946 30 route active;
#X obj 946 50 s \$0-active;
#X msg 450 70 0;
#X obj 450 90 s \$0-Matrix-8-x-8/OUT-0/IN-0;
#X obj 698 70 r \$0-Matrix-8-x-8/OUT-0/IN-0;
#X msg 698 90 /Matrix-8-x-8/OUT-0/IN-0 \$1;
#X obj 946 70 route /Matrix-8-x-8/OUT-0/IN-0;
#X obj 946 90 s \$0-Matrix-8-x-8/OUT-0/IN-0;
#X msg 450 110 0;
#X obj 450 130 s \$0-Matrix-8-x-8/OUT-0/IN-1;
#X obj 698 110 r \$0-Matrix-8-x-8/OUT-0/IN-1;
#X msg 698 130 /Matrix-8-x-8/OUT-0/IN-1 \$1;
#X obj 946 110 route /Matrix-8-x-8/OUT-0/IN-1;
#X obj 946 130 s \$0-Matrix-8-x-8/OUT-0/IN-1;
#X msg 450 150 0;
#X obj 450 170 s \$0-Matrix-8-x-8/OUT-0/IN-2;
#X obj 698 150 r \$0-Matrix-8-x-8/OUT-0/IN-2;
#X msg 698 170 /Matrix-8-x-8/OUT-0/IN-2 \$1;
#X obj 946 150 route /Matrix-8-x-8/OUT-0/IN-2;
#X obj 946 170 s \$0-Matrix-8-x-8/OUT-0/IN-2;
#X msg 450 190 0;
#X obj 450 210 s \$0-Matrix-8-x-8/OUT-0/IN-3;
#X obj 698 190 r \$0-Matrix-8-x-8/OUT-0/IN-3;
#X msg 698 210 /Matrix-8-x-8/OUT-0/IN-3 \$1;
#X obj 946 190 route /Matrix-8-x-8/OUT-0/IN-3;
#X obj 946 210 s \$0-Matrix-8-x-8/OUT-0/IN-3;
#X msg 450 230 0;
#X obj 450 250 s \$0-Matrix-8-x-8/OUT-0/IN-4;
#X obj 698 230 r \$0-Matrix-8-x-8/OUT-0/IN-4;
#X msg 698 250 /Matrix-8-x-8/OUT-0/IN-4 \$1;
#X obj 946 230 route /Matrix-8-x-8/OUT-0/IN-4;
#X obj 946 250 s \$0-Matrix-8-x-8/OUT-0/IN-4;
#X msg 450 270 0;
#X obj 450 290 s \$0-Matrix-8-x-8/OUT-0/IN-5;
#X obj 698 270 r \$0-Matrix-8-x-8/OUT-0/IN-5;
#X msg 698 290 /Matrix-8-x-8/OUT-0/IN-5 \$1;
#X obj 946 270 route /Matrix-8-x-8/OUT-0/IN-5;
#X obj 946 290 s \$0-Matrix-8-x-8/OUT-0/IN-5;
#X msg 450 310 0;
#X obj 450 330 s \$0-Matrix-8-x-8/OUT-0/IN-6;
#X obj 698 310 r \$0-Matrix-8-x-8/OUT-0/IN-6;
#X msg 698 330 /Matrix-8-x-8/OUT-0/IN-6 \$1;
#X obj 946 310 route /Matrix-8-x-8/OUT-0/IN-6;
#X obj 946 330 s \$0-Matrix-8-x-8/OUT-0/IN-6;
#X msg 450 350 0;
#X obj 450 370 s \$0-Matrix-8-x-8/OUT-0/IN-7;
#X obj 698 350 r \$0-Matrix-8-x-8/OUT-0/IN-7;
#X msg 698 370 /Matrix-8-x-8/OUT-0/IN-7 \$1;
#X obj 946 350 route /Matrix-8-x-8/OUT-0/IN-7;
#X obj 946 370 s \$0-Matrix-8-x-8/OUT-0/IN-7;
#X msg 450 390 0;
#X obj 450 410 s \$0-Matrix-8-x-8/OUT-1/IN-0;
#X obj 698 390 r \$0-Matrix-8-x-8/OUT-1/IN-0;
#X msg 698 410 /Matrix-8-x-8/OUT-1/IN-0 \$1;
#X obj 946 390 route /Matrix-8-x-8/OUT-1/IN-0;
#X obj 946 410 s \$0-Matrix-8-x-8/OUT-1/IN-0;
#X msg 450 430 0;
#X obj 450 450 s \$0-Matrix-8-x-8/OUT-1/IN-1;
#X obj 698 430 r \$0-Matrix-8-x-8/OUT-1/IN-1;
#X msg 698 450 /Matrix-8-x-8/OUT-1/IN-1 \$1;
#X obj 946 430 route /Matrix-8-x-8/OUT-1/IN-1;
#X obj 946 450 s \$0-Matrix-8-x-8/OUT-1/IN-1;
#X msg 450 470 0;
#X obj 450 490 s \$0-Matrix-8-x-8/OUT-1/IN-2;
#X obj 698 470 r \$0-Matrix-8-x-8/OUT-1/IN-2;
#X msg 698 490 /Matrix-8-x-8/OUT-1/IN-2 \$1;
#X obj 946 470 route /Matrix-8-x-8/OUT-1/IN-2;
#X obj 946 490 s \$0-Matrix-8-x-8/OUT-1/IN-2;
#X msg 450 510 0;
#X obj 450 530 s \$0-Matrix-8-x-8/OUT-1/IN-3;
#X obj 698 510 r \$0-Matrix-8-x-8/OUT-1/IN-3;
#X msg 698 530 /Matrix-8-x-8/OUT-1/IN-3 \$1;
#X obj 946 510 route /Matrix-8-x-8/OUT-1/IN-3;
#X obj 946 530 s \$0-Matrix-8-x-8/OUT-1/IN-3;
#X msg 450 550 0;
#X obj 450 570 s \$0-Matrix-8-x-8/OUT-1/IN-4;
#X obj 698 550 r \$0-Matrix-8-x-8/OUT-1/IN-4;
#X msg 698 570 /Matrix-8-x-8/OUT-1/IN-4 \$1;
#X obj 946 550 route /Matrix-8-x-8/OUT-1/IN-4;
#X obj 946 570 s \$0-Matrix-8-x-8/OUT-1/IN-4;
#X msg 450 590 0;
#X obj 450 610 s \$0-Matrix-8-x-8/OUT-1/IN-5;
#X obj 698 590 r \$0-Matrix-8-x-8/OUT-1/IN-5;
#X msg 698 610 /Matrix-8-x-8/OUT-1/IN-5 \$1;
#X obj 946 590 route /Matrix-8-x-8/OUT-1/IN-5;
#X obj 946 610 s \$0-Matrix-8-x-8/OUT-1/IN-5;
#X msg 450 630 0;
#X obj 450 650 s \$0-Matrix-8-x-8/OUT-1/IN-6;
#X obj 698 630 r \$0-Matrix-8-x-8/OUT-1/IN-6;
#X msg 698 650 /Matrix-8-x-8/OUT-1/IN-6 \$1;
#X obj 946 630 route /Matrix-8-x-8/OUT-1/IN-6;
#X obj 946 650 s \$0-Matrix-8-x-8/OUT-1/IN-6;
#X msg 450 670 0;
#X obj 450 690 s \$0-Matrix-8-x-8/OUT-1/IN-7;
#X obj 698 670 r \$0-Matrix-8-x-8/OUT-1/IN-7;
#X msg 698 690 /Matrix-8-x-8/OUT-1/IN-7 \$1;
#X obj 946 670 route /Matrix-8-x-8/OUT-1/IN-7;
#X obj 946 690 s \$0-Matrix-8-x-8/OUT-1/IN-7;
#X msg 450 710 0;
#X obj 450 730 s \$0-Matrix-8-x-8/OUT-2/IN-0;
#X obj 698 710 r \$0-Matrix-8-x-8/OUT-2/IN-0;
#X msg 698 730 /Matrix-8-x-8/OUT-2/IN-0 \$1;
#X obj 946 710 route /Matrix-8-x-8/OUT-2/IN-0;
#X obj 946 730 s \$0-Matrix-8-x-8/OUT-2/IN-0;
#X msg 450 750 0;
#X obj 450 770 s \$0-Matrix-8-x-8/OUT-2/IN-1;
#X obj 698 750 r \$0-Matrix-8-x-8/OUT-2/IN-1;
#X msg 698 770 /Matrix-8-x-8/OUT-2/IN-1 \$1;
#X obj 946 750 route /Matrix-8-x-8/OUT-2/IN-1;
#X obj 946 770 s \$0-Matrix-8-x-8/OUT-2/IN-1;
#X msg 450 790 0;
#X obj 450 810 s \$0-Matrix-8-x-8/OUT-2/IN-2;
#X obj 698 790 r \$0-Matrix-8-x-8/OUT-2/IN-2;
#X msg 698 810 /Matrix-8-x-8/OUT-2/IN-2 \$1;
#X obj 946 790 route /Matrix-8-x-8/OUT-2/IN-2;
#X obj 946 810 s \$0-Matrix-8-x-8/OUT-2/IN-2;
#X msg 450 830 0;
#X obj 450 850 s \$0-Matrix-8-x-8/OUT-2/IN-3;
#X obj 698 830 r \$0-Matrix-8-x-8/OUT-2/IN-3;
#X msg 698 850 /Matrix-8-x-8/OUT-2/IN-3 \$1;
#X obj 946 830 route /Matrix-8-x-8/OUT-2/IN-3;
#X obj 946 850 s \$0-Matrix-8-x-8/OUT-2/IN-3;
#X msg 450 870 0;
#X obj 450 890 s \$0-Matrix-8-x-8/OUT-2/IN-4;
#X obj 698 870 r \$0-Matrix-8-x-8/OUT-2/IN-4;
#X msg 698 890 /Matrix-8-x-8/OUT-2/IN-4 \$1;
#X obj 946 870 route /Matrix-8-x-8/OUT-2/IN-4;
#X obj 946 890 s \$0-Matrix-8-x-8/OUT-2/IN-4;
#X msg 450 910 0;
#X obj 450 930 s \$0-Matrix-8-x-8/OUT-2/IN-5;
#X obj 698 910 r \$0-Matrix-8-x-8/OUT-2/IN-5;
#X msg 698 930 /Matrix-8-x-8/OUT-2/IN-5 \$1;
#X obj 946 910 route /Matrix-8-x-8/OUT-2/IN-5;
#X obj 946 930 s \$0-Matrix-8-x-8/OUT-2/IN-5;
#X msg 450 950 0;
#X obj 450 970 s \$0-Matrix-8-x-8/OUT-2/IN-6;
#X obj 698 950 r \$0-Matrix-8-x-8/OUT-2/IN-6;
#X msg 698 970 /Matrix-8-x-8/OUT-2/IN-6 \$1;
#X obj 946 950 route /Matrix-8-x-8/OUT-2/IN-6;
#X obj 946 970 s \$0-Matrix-8-x-8/OUT-2/IN-6;
#X msg 450 990 0;
#X obj 450 1010 s \$0-Matrix-8-x-8/OUT-2/IN-7;
#X obj 698 990 r \$0-Matrix-8-x-8/OUT-2/IN-7;
#X msg 698 1010 /Matrix-8-x-8/OUT-2/IN-7 \$1;
#X obj 946 990 route /Matrix-8-x-8/OUT-2/IN-7;
#X obj 946 1010 s \$0-Matrix-8-x-8/OUT-2/IN-7;
#X msg 450 1030 0;
#X obj 450 1050 s \$0-Matrix-8-x-8/OUT-3/IN-0;
#X obj 698 1030 r \$0-Matrix-8-x-8/OUT-3/IN-0;
#X msg 698 1050 /Matrix-8-x-8/OUT-3/IN-0 \$1;
#X obj 946 1030 route /Matrix-8-x-8/OUT-3/IN-0;
#X obj 946 1050 s \$0-Matrix-8-x-8/OUT-3/IN-0;
#X msg 450 1070 0;
#X obj 450 1090 s \$0-Matrix-8-x-8/OUT-3/IN-1;
#X obj 698 1070 r \$0-Matrix-8-x-8/OUT-3/IN-1;
#X msg 698 1090 /Matrix-8-x-8/OUT-3/IN-1 \$1;
#X obj 946 1070 route /Matrix-8-x-8/OUT-3/IN-1;
#X obj 946 1090 s \$0-Matrix-8-x-8/OUT-3/IN-1;
#X msg 450 1110 0;
#X obj 450 1130 s \$0-Matrix-8-x-8/OUT-3/IN-2;
#X obj 698 1110 r \$0-Matrix-8-x-8/OUT-3/IN-2;
#X msg 698 1130 /Matrix-8-x-8/OUT-3/IN-2 \$1;
#X obj 946 1110 route /Matrix-8-x-8/OUT-3/IN-2;
#X obj 946 1130 s \$0-Matrix-8-x-8/OUT-3/IN-2;
#X msg 450 1150 0;
#X obj 450 1170 s \$0-Matrix-8-x-8/OUT-3/IN-3;
#X obj 698 1150 r \$0-Matrix-8-x-8/OUT-3/IN-3;
#X msg 698 1170 /Matrix-8-x-8/OUT-3/IN-3 \$1;
#X obj 946 1150 route /Matrix-8-x-8/OUT-3/IN-3;
#X obj 946 1170 s \$0-Matrix-8-x-8/OUT-3/IN-3;
#X msg 450 1190 0;
#X obj 450 1210 s \$0-Matrix-8-x-8/OUT-3/IN-4;
#X obj 698 1190 r \$0-Matrix-8-x-8/OUT-3/IN-4;
#X msg 698 1210 /Matrix-8-x-8/OUT-3/IN-4 \$1;
#X obj 946 1190 route /Matrix-8-x-8/OUT-3/IN-4;
#X obj 946 1210 s \$0-Matrix-8-x-8/OUT-3/IN-4;
#X msg 450 1230 0;
#X obj 450 1250 s \$0-Matrix-8-x-8/OUT-3/IN-5;
#X obj 698 1230 r \$0-Matrix-8-x-8/OUT-3/IN-5;
#X msg 698 1250 /Matrix-8-x-8/OUT-3/IN-5 \$1;
#X obj 946 1230 route /Matrix-8-x-8/OUT-3/IN-5;
#X obj 946 1250 s \$0-Matrix-8-x-8/OUT-3/IN-5;
#X msg 450 1270 0;
#X obj 450 1290 s \$0-Matrix-8-x-8/OUT-3/IN-6;
#X obj 698 1270 r \$0-Matrix-8-x-8/OUT-3/IN-6;
#X msg 698 1290 /Matrix-8-x-8/OUT-3/IN-6 \$1;
#X obj 946 1270 route /Matrix-8-x-8/OUT-3/IN-6;
#X obj 946 1290 s \$0-Matrix-8-x-8/OUT-3/IN-6;
#X msg 450 1310 0;
#X obj 450 1330 s \$0-Matrix-8-x-8/OUT-3/IN-7;
#X obj 698 1310 r \$0-Matrix-8-x-8/OUT-3/IN-7;
#X msg 698 1330 /Matrix-8-x-8/OUT-3/IN-7 \$1;
#X obj 946 1310 route /Matrix-8-x-8/OUT-3/IN-7;
#X obj 946 1330 s \$0-Matrix-8-x-8/OUT-3/IN-7;
#X msg 450 1350 0;
#X obj 450 1370 s \$0-Matrix-8-x-8/OUT-4/IN-0;
#X obj 698 1350 r \$0-Matrix-8-x-8/OUT-4/IN-0;
#X msg 698 1370 /Matrix-8-x-8/OUT-4/IN-0 \$1;
#X obj 946 1350 route /Matrix-8-x-8/OUT-4/IN-0;
#X obj 946 1370 s \$0-Matrix-8-x-8/OUT-4/IN-0;
#X msg 450 1390 0;
#X obj 450 1410 s \$0-Matrix-8-x-8/OUT-4/IN-1;
#X obj 698 1390 r \$0-Matrix-8-x-8/OUT-4/IN-1;
#X msg 698 1410 /Matrix-8-x-8/OUT-4/IN-1 \$1;
#X obj 946 1390 route /Matrix-8-x-8/OUT-4/IN-1;
#X obj 946 1410 s \$0-Matrix-8-x-8/OUT-4/IN-1;
#X msg 450 1430 0;
#X obj 450 1450 s \$0-Matrix-8-x-8/OUT-4/IN-2;
#X obj 698 1430 r \$0-Matrix-8-x-8/OUT-4/IN-2;
#X msg 698 1450 /Matrix-8-x-8/OUT-4/IN-2 \$1;
#X obj 946 1430 route /Matrix-8-x-8/OUT-4/IN-2;
#X obj 946 1450 s \$0-Matrix-8-x-8/OUT-4/IN-2;
#X msg 450 1470 0;
#X obj 450 1490 s \$0-Matrix-8-x-8/OUT-4/IN-3;
#X obj 698 1470 r \$0-Matrix-8-x-8/OUT-4/IN-3;
#X msg 698 1490 /Matrix-8-x-8/OUT-4/IN-3 \$1;
#X obj 946 1470 route /Matrix-8-x-8/OUT-4/IN-3;
#X obj 946 1490 s \$0-Matrix-8-x-8/OUT-4/IN-3;
#X msg 450 1510 0;
#X obj 450 1530 s \$0-Matrix-8-x-8/OUT-4/IN-4;
#X obj 698 1510 r \$0-Matrix-8-x-8/OUT-4/IN-4;
#X msg 698 1530 /Matrix-8-x-8/OUT-4/IN-4 \$1;
#X obj 946 1510 route /Matrix-8-x-8/OUT-4/IN-4;
#X obj 946 1530 s \$0-Matrix-8-x-8/OUT-4/IN-4;
#X msg 450 1550 0;
#X obj 450 1570 s \$0-Matrix-8-x-8/OUT-4/IN-5;
#X obj 698 1550 r \$0-Matrix-8-x-8/OUT-4/IN-5;
#X msg 698 1570 /Matrix-8-x-8/OUT-4/IN-5 \$1;
#X obj 946 1550 route /Matrix-8-x-8/OUT-4/IN-5;
#X obj 946 1570 s \$0-Matrix-8-x-8/OUT-4/IN-5;
#X msg 450 1590 0;
#X obj 450 1610 s \$0-Matrix-8-x-8/OUT-4/IN-6;
#X obj 698 1590 r \$0-Matrix-8-x-8/OUT-4/IN-6;
#X msg 698 1610 /Matrix-8-x-8/OUT-4/IN-6 \$1;
#X obj 946 1590 route /Matrix-8-x-8/OUT-4/IN-6;
#X obj 946 1610 s \$0-Matrix-8-x-8/OUT-4/IN-6;
#X msg 450 1630 0;
#X obj 450 1650 s \$0-Matrix-8-x-8/OUT-4/IN-7;
#X obj 698 1630 r \$0-Matrix-8-x-8/OUT-4/IN-7;
#X msg 698 1650 /Matrix-8-x-8/OUT-4/IN-7 \$1;
#X obj 946 1630 route /Matrix-8-x-8/OUT-4/IN-7;
#X obj 946 1650 s \$0-Matrix-8-x-8/OUT-4/IN-7;
#X msg 450 1670 0;
#X obj 450 1690 s \$0-Matrix-8-x-8/OUT-5/IN-0;
#X obj 698 1670 r \$0-Matrix-8-x-8/OUT-5/IN-0;
#X msg 698 1690 /Matrix-8-x-8/OUT-5/IN-0 \$1;
#X obj 946 1670 route /Matrix-8-x-8/OUT-5/IN-0;
#X obj 946 1690 s \$0-Matrix-8-x-8/OUT-5/IN-0;
#X msg 450 1710 0;
#X obj 450 1730 s \$0-Matrix-8-x-8/OUT-5/IN-1;
#X obj 698 1710 r \$0-Matrix-8-x-8/OUT-5/IN-1;
#X msg 698 1730 /Matrix-8-x-8/OUT-5/IN-1 \$1;
#X obj 946 1710 route /Matrix-8-x-8/OUT-5/IN-1;
#X obj 946 1730 s \$0-Matrix-8-x-8/OUT-5/IN-1;
#X msg 450 1750 0;
#X obj 450 1770 s \$0-Matrix-8-x-8/OUT-5/IN-2;
#X obj 698 1750 r \$0-Matrix-8-x-8/OUT-5/IN-2;
#X msg 698 1770 /Matrix-8-x-8/OUT-5/IN-2 \$1;
#X obj 946 1750 route /Matrix-8-x-8/OUT-5/IN-2;
#X obj 946 1770 s \$0-Matrix-8-x-8/OUT-5/IN-2;
#X msg 450 1790 0;
#X obj 450 1810 s \$0-Matrix-8-x-8/OUT-5/IN-3;
#X obj 698 1790 r \$0-Matrix-8-x-8/OUT-5/IN-3;
#X msg 698 1810 /Matrix-8-x-8/OUT-5/IN-3 \$1;
#X obj 946 1790 route /Matrix-8-x-8/OUT-5/IN-3;
#X obj 946 1810 s \$0-Matrix-8-x-8/OUT-5/IN-3;
#X msg 450 1830 0;
#X obj 450 1850 s \$0-Matrix-8-x-8/OUT-5/IN-4;
#X obj 698 1830 r \$0-Matrix-8-x-8/OUT-5/IN-4;
#X msg 698 1850 /Matrix-8-x-8/OUT-5/IN-4 \$1;
#X obj 946 1830 route /Matrix-8-x-8/OUT-5/IN-4;
#X obj 946 1850 s \$0-Matrix-8-x-8/OUT-5/IN-4;
#X msg 450 1870 0;
#X obj 450 1890 s \$0-Matrix-8-x-8/OUT-5/IN-5;
#X obj 698 1870 r \$0-Matrix-8-x-8/OUT-5/IN-5;
#X msg 698 1890 /Matrix-8-x-8/OUT-5/IN-5 \$1;
#X obj 946 1870 route /Matrix-8-x-8/OUT-5/IN-5;
#X obj 946 1890 s \$0-Matrix-8-x-8/OUT-5/IN-5;
#X msg 450 1910 0;
#X obj 450 1930 s \$0-Matrix-8-x-8/OUT-5/IN-6;
#X obj 698 1910 r \$0-Matrix-8-x-8/OUT-5/IN-6;
#X msg 698 1930 /Matrix-8-x-8/OUT-5/IN-6 \$1;
#X obj 946 1910 route /Matrix-8-x-8/OUT-5/IN-6;
#X obj 946 1930 s \$0-Matrix-8-x-8/OUT-5/IN-6;
#X msg 450 1950 0;
#X obj 450 1970 s \$0-Matrix-8-x-8/OUT-5/IN-7;
#X obj 698 1950 r \$0-Matrix-8-x-8/OUT-5/IN-7;
#X msg 698 1970 /Matrix-8-x-8/OUT-5/IN-7 \$1;
#X obj 946 1950 route /Matrix-8-x-8/OUT-5/IN-7;
#X obj 946 1970 s \$0-Matrix-8-x-8/OUT-5/IN-7;
#X msg 450 1990 0;
#X obj 450 2010 s \$0-Matrix-8-x-8/OUT-6/IN-0;
#X obj 698 1990 r \$0-Matrix-8-x-8/OUT-6/IN-0;
#X msg 698 2010 /Matrix-8-x-8/OUT-6/IN-0 \$1;
#X obj 946 1990 route /Matrix-8-x-8/OUT-6/IN-0;
#X obj 946 2010 s \$0-Matrix-8-x-8/OUT-6/IN-0;
#X msg 450 2030 0;
#X obj 450 2050 s \$0-Matrix-8-x-8/OUT-6/IN-1;
#X obj 698 2030 r \$0-Matrix-8-x-8/OUT-6/IN-1;
#X msg 698 2050 /Matrix-8-x-8/OUT-6/IN-1 \$1;
#X obj 946 2030 route /Matrix-8-x-8/OUT-6/IN-1;
#X obj 946 2050 s \$0-Matrix-8-x-8/OUT-6/IN-1;
#X msg 450 2070 0;
#X obj 450 2090 s \$0-Matrix-8-x-8/OUT-6/IN-2;
#X obj 698 2070 r \$0-Matrix-8-x-8/OUT-6/IN-2;
#X msg 698 2090 /Matrix-8-x-8/OUT-6/IN-2 \$1;
#X obj 946 2070 route /Matrix-8-x-8/OUT-6/IN-2;
#X obj 946 2090 s \$0-Matrix-8-x-8/OUT-6/IN-2;
#X msg 450 2110 0;
#X obj 450 2130 s \$0-Matrix-8-x-8/OUT-6/IN-3;
#X obj 698 2110 r \$0-Matrix-8-x-8/OUT-6/IN-3;
#X msg 698 2130 /Matrix-8-x-8/OUT-6/IN-3 \$1;
#X obj 946 2110 route /Matrix-8-x-8/OUT-6/IN-3;
#X obj 946 2130 s \$0-Matrix-8-x-8/OUT-6/IN-3;
#X msg 450 2150 0;
#X obj 450 2170 s \$0-Matrix-8-x-8/OUT-6/IN-4;
#X obj 698 2150 r \$0-Matrix-8-x-8/OUT-6/IN-4;
#X msg 698 2170 /Matrix-8-x-8/OUT-6/IN-4 \$1;
#X obj 946 2150 route /Matrix-8-x-8/OUT-6/IN-4;
#X obj 946 2170 s \$0-Matrix-8-x-8/OUT-6/IN-4;
#X msg 450 2190 0;
#X obj 450 2210 s \$0-Matrix-8-x-8/OUT-6/IN-5;
#X obj 698 2190 r \$0-Matrix-8-x-8/OUT-6/IN-5;
#X msg 698 2210 /Matrix-8-x-8/OUT-6/IN-5 \$1;
#X obj 946 2190 route /Matrix-8-x-8/OUT-6/IN-5;
#X obj 946 2210 s \$0-Matrix-8-x-8/OUT-6/IN-5;
#X msg 450 2230 0;
#X obj 450 2250 s \$0-Matrix-8-x-8/OUT-6/IN-6;
#X obj 698 2230 r \$0-Matrix-8-x-8/OUT-6/IN-6;
#X msg 698 2250 /Matrix-8-x-8/OUT-6/IN-6 \$1;
#X obj 946 2230 route /Matrix-8-x-8/OUT-6/IN-6;
#X obj 946 2250 s \$0-Matrix-8-x-8/OUT-6/IN-6;
#X msg 450 2270 0;
#X obj 450 2290 s \$0-Matrix-8-x-8/OUT-6/IN-7;
#X obj 698 2270 r \$0-Matrix-8-x-8/OUT-6/IN-7;
#X msg 698 2290 /Matrix-8-x-8/OUT-6/IN-7 \$1;
#X obj 946 2270 route /Matrix-8-x-8/OUT-6/IN-7;
#X obj 946 2290 s \$0-Matrix-8-x-8/OUT-6/IN-7;
#X msg 450 2310 0;
#X obj 450 2330 s \$0-Matrix-8-x-8/OUT-7/IN-0;
#X obj 698 2310 r \$0-Matrix-8-x-8/OUT-7/IN-0;
#X msg 698 2330 /Matrix-8-x-8/OUT-7/IN-0 \$1;
#X obj 946 2310 route /Matrix-8-x-8/OUT-7/IN-0;
#X obj 946 2330 s \$0-Matrix-8-x-8/OUT-7/IN-0;
#X msg 450 2350 0;
#X obj 450 2370 s \$0-Matrix-8-x-8/OUT-7/IN-1;
#X obj 698 2350 r \$0-Matrix-8-x-8/OUT-7/IN-1;
#X msg 698 2370 /Matrix-8-x-8/OUT-7/IN-1 \$1;
#X obj 946 2350 route /Matrix-8-x-8/OUT-7/IN-1;
#X obj 946 2370 s \$0-Matrix-8-x-8/OUT-7/IN-1;
#X msg 450 2390 0;
#X obj 450 2410 s \$0-Matrix-8-x-8/OUT-7/IN-2;
#X obj 698 2390 r \$0-Matrix-8-x-8/OUT-7/IN-2;
#X msg 698 2410 /Matrix-8-x-8/OUT-7/IN-2 \$1;
#X obj 946 2390 route /Matrix-8-x-8/OUT-7/IN-2;
#X obj 946 2410 s \$0-Matrix-8-x-8/OUT-7/IN-2;
#X msg 450 2430 0;
#X obj 450 2450 s \$0-Matrix-8-x-8/OUT-7/IN-3;
#X obj 698 2430 r \$0-Matrix-8-x-8/OUT-7/IN-3;
#X msg 698 2450 /Matrix-8-x-8/OUT-7/IN-3 \$1;
#X obj 946 2430 route /Matrix-8-x-8/OUT-7/IN-3;
#X obj 946 2450 s \$0-Matrix-8-x-8/OUT-7/IN-3;
#X msg 450 2470 0;
#X obj 450 2490 s \$0-Matrix-8-x-8/OUT-7/IN-4;
#X obj 698 2470 r \$0-Matrix-8-x-8/OUT-7/IN-4;
#X msg 698 2490 /Matrix-8-x-8/OUT-7/IN-4 \$1;
#X obj 946 2470 route /Matrix-8-x-8/OUT-7/IN-4;
#X obj 946 2490 s \$0-Matrix-8-x-8/OUT-7/IN-4;
#X msg 450 2510 0;
#X obj 450 2530 s \$0-Matrix-8-x-8/OUT-7/IN-5;
#X obj 698 2510 r \$0-Matrix-8-x-8/OUT-7/IN-5;
#X msg 698 2530 /Matrix-8-x-8/OUT-7/IN-5 \$1;
#X obj 946 2510 route /Matrix-8-x-8/OUT-7/IN-5;
#X obj 946 2530 s \$0-Matrix-8-x-8/OUT-7/IN-5;
#X msg 450 2550 0;
#X obj 450 2570 s \$0-Matrix-8-x-8/OUT-7/IN-6;
#X obj 698 2550 r \$0-Matrix-8-x-8/OUT-7/IN-6;
#X msg 698 2570 /Matrix-8-x-8/OUT-7/IN-6 \$1;
#X obj 946 2550 route /Matrix-8-x-8/OUT-7/IN-6;
#X obj 946 2570 s \$0-Matrix-8-x-8/OUT-7/IN-6;
#X msg 450 2590 0;
#X obj 450 2610 s \$0-Matrix-8-x-8/OUT-7/IN-7;
#X obj 698 2590 r \$0-Matrix-8-x-8/OUT-7/IN-7;
#X msg 698 2610 /Matrix-8-x-8/OUT-7/IN-7 \$1;
#X obj 946 2590 route /Matrix-8-x-8/OUT-7/IN-7;
#X obj 946 2610 s \$0-Matrix-8-x-8/OUT-7/IN-7;
#X text 0 280 Generated Sun Oct 31 11:42:32 2021 by faust2pd v2.16.
See http://faust.grame.fr and http://purelang.bitbucket.org.;
#X text 3 26 Out 0;
#X text 3 56 Out 1;
#X text 3 86 Out 2;
#X text 3 116 Out 3;
#X text 3 145 Out 4;
#X text 3 175 Out 5;
#X text 3 205 Out 6;
#X text 3 235 Out 7;
#X connect 0 0 12 1;
#X connect 1 0 12 2;
#X connect 2 0 12 3;
#X connect 3 0 12 4;
#X connect 4 0 12 5;
#X connect 5 0 12 6;
#X connect 6 0 12 7;
#X connect 7 0 12 8;
#X connect 8 0 9 0;
#X connect 9 0 10 0;
#X connect 11 0 12 0;
#X connect 12 0 13 0;
#X connect 12 1 14 0;
#X connect 12 2 15 0;
#X connect 12 3 16 0;
#X connect 12 4 17 0;
#X connect 12 5 18 0;
#X connect 12 6 19 0;
#X connect 12 7 20 0;
#X connect 12 8 21 0;
#X connect 86 0 96 0;
#X connect 86 0 102 0;
#X connect 86 0 108 0;
#X connect 86 0 114 0;
#X connect 86 0 120 0;
#X connect 86 0 126 0;
#X connect 86 0 132 0;
#X connect 86 0 138 0;
#X connect 86 0 144 0;
#X connect 86 0 150 0;
#X connect 86 0 156 0;
#X connect 86 0 162 0;
#X connect 86 0 168 0;
#X connect 86 0 174 0;
#X connect 86 0 180 0;
#X connect 86 0 186 0;
#X connect 86 0 192 0;
#X connect 86 0 198 0;
#X connect 86 0 204 0;
#X connect 86 0 210 0;
#X connect 86 0 216 0;
#X connect 86 0 222 0;
#X connect 86 0 228 0;
#X connect 86 0 234 0;
#X connect 86 0 240 0;
#X connect 86 0 246 0;
#X connect 86 0 252 0;
#X connect 86 0 258 0;
#X connect 86 0 264 0;
#X connect 86 0 270 0;
#X connect 86 0 276 0;
#X connect 86 0 282 0;
#X connect 86 0 288 0;
#X connect 86 0 294 0;
#X connect 86 0 300 0;
#X connect 86 0 306 0;
#X connect 86 0 312 0;
#X connect 86 0 318 0;
#X connect 86 0 324 0;
#X connect 86 0 330 0;
#X connect 86 0 336 0;
#X connect 86 0 342 0;
#X connect 86 0 348 0;
#X connect 86 0 354 0;
#X connect 86 0 360 0;
#X connect 86 0 366 0;
#X connect 86 0 372 0;
#X connect 86 0 378 0;
#X connect 86 0 384 0;
#X connect 86 0 390 0;
#X connect 86 0 396 0;
#X connect 86 0 402 0;
#X connect 86 0 408 0;
#X connect 86 0 414 0;
#X connect 86 0 420 0;
#X connect 86 0 426 0;
#X connect 86 0 432 0;
#X connect 86 0 438 0;
#X connect 86 0 444 0;
#X connect 86 0 450 0;
#X connect 86 0 456 0;
#X connect 86 0 462 0;
#X connect 86 0 468 0;
#X connect 86 0 474 0;
#X connect 89 0 94 0;
#X connect 90 0 91 0;
#X connect 92 0 93 0;
#X connect 93 0 87 0;
#X connect 94 0 95 0;
#X connect 94 1 100 0;
#X connect 96 0 97 0;
#X connect 98 0 99 0;
#X connect 99 0 87 0;
#X connect 100 0 101 0;
#X connect 100 1 106 0;
#X connect 102 0 103 0;
#X connect 104 0 105 0;
#X connect 105 0 87 0;
#X connect 106 0 107 0;
#X connect 106 1 112 0;
#X connect 108 0 109 0;
#X connect 110 0 111 0;
#X connect 111 0 87 0;
#X connect 112 0 113 0;
#X connect 112 1 118 0;
#X connect 114 0 115 0;
#X connect 116 0 117 0;
#X connect 117 0 87 0;
#X connect 118 0 119 0;
#X connect 118 1 124 0;
#X connect 120 0 121 0;
#X connect 122 0 123 0;
#X connect 123 0 87 0;
#X connect 124 0 125 0;
#X connect 124 1 130 0;
#X connect 126 0 127 0;
#X connect 128 0 129 0;
#X connect 129 0 87 0;
#X connect 130 0 131 0;
#X connect 130 1 136 0;
#X connect 132 0 133 0;
#X connect 134 0 135 0;
#X connect 135 0 87 0;
#X connect 136 0 137 0;
#X connect 136 1 142 0;
#X connect 138 0 139 0;
#X connect 140 0 141 0;
#X connect 141 0 87 0;
#X connect 142 0 143 0;
#X connect 142 1 148 0;
#X connect 144 0 145 0;
#X connect 146 0 147 0;
#X connect 147 0 87 0;
#X connect 148 0 149 0;
#X connect 148 1 154 0;
#X connect 150 0 151 0;
#X connect 152 0 153 0;
#X connect 153 0 87 0;
#X connect 154 0 155 0;
#X connect 154 1 160 0;
#X connect 156 0 157 0;
#X connect 158 0 159 0;
#X connect 159 0 87 0;
#X connect 160 0 161 0;
#X connect 160 1 166 0;
#X connect 162 0 163 0;
#X connect 164 0 165 0;
#X connect 165 0 87 0;
#X connect 166 0 167 0;
#X connect 166 1 172 0;
#X connect 168 0 169 0;
#X connect 170 0 171 0;
#X connect 171 0 87 0;
#X connect 172 0 173 0;
#X connect 172 1 178 0;
#X connect 174 0 175 0;
#X connect 176 0 177 0;
#X connect 177 0 87 0;
#X connect 178 0 179 0;
#X connect 178 1 184 0;
#X connect 180 0 181 0;
#X connect 182 0 183 0;
#X connect 183 0 87 0;
#X connect 184 0 185 0;
#X connect 184 1 190 0;
#X connect 186 0 187 0;
#X connect 188 0 189 0;
#X connect 189 0 87 0;
#X connect 190 0 191 0;
#X connect 190 1 196 0;
#X connect 192 0 193 0;
#X connect 194 0 195 0;
#X connect 195 0 87 0;
#X connect 196 0 197 0;
#X connect 196 1 202 0;
#X connect 198 0 199 0;
#X connect 200 0 201 0;
#X connect 201 0 87 0;
#X connect 202 0 203 0;
#X connect 202 1 208 0;
#X connect 204 0 205 0;
#X connect 206 0 207 0;
#X connect 207 0 87 0;
#X connect 208 0 209 0;
#X connect 208 1 214 0;
#X connect 210 0 211 0;
#X connect 212 0 213 0;
#X connect 213 0 87 0;
#X connect 214 0 215 0;
#X connect 214 1 220 0;
#X connect 216 0 217 0;
#X connect 218 0 219 0;
#X connect 219 0 87 0;
#X connect 220 0 221 0;
#X connect 220 1 226 0;
#X connect 222 0 223 0;
#X connect 224 0 225 0;
#X connect 225 0 87 0;
#X connect 226 0 227 0;
#X connect 226 1 232 0;
#X connect 228 0 229 0;
#X connect 230 0 231 0;
#X connect 231 0 87 0;
#X connect 232 0 233 0;
#X connect 232 1 238 0;
#X connect 234 0 235 0;
#X connect 236 0 237 0;
#X connect 237 0 87 0;
#X connect 238 0 239 0;
#X connect 238 1 244 0;
#X connect 240 0 241 0;
#X connect 242 0 243 0;
#X connect 243 0 87 0;
#X connect 244 0 245 0;
#X connect 244 1 250 0;
#X connect 246 0 247 0;
#X connect 248 0 249 0;
#X connect 249 0 87 0;
#X connect 250 0 251 0;
#X connect 250 1 256 0;
#X connect 252 0 253 0;
#X connect 254 0 255 0;
#X connect 255 0 87 0;
#X connect 256 0 257 0;
#X connect 256 1 262 0;
#X connect 258 0 259 0;
#X connect 260 0 261 0;
#X connect 261 0 87 0;
#X connect 262 0 263 0;
#X connect 262 1 268 0;
#X connect 264 0 265 0;
#X connect 266 0 267 0;
#X connect 267 0 87 0;
#X connect 268 0 269 0;
#X connect 268 1 274 0;
#X connect 270 0 271 0;
#X connect 272 0 273 0;
#X connect 273 0 87 0;
#X connect 274 0 275 0;
#X connect 274 1 280 0;
#X connect 276 0 277 0;
#X connect 278 0 279 0;
#X connect 279 0 87 0;
#X connect 280 0 281 0;
#X connect 280 1 286 0;
#X connect 282 0 283 0;
#X connect 284 0 285 0;
#X connect 285 0 87 0;
#X connect 286 0 287 0;
#X connect 286 1 292 0;
#X connect 288 0 289 0;
#X connect 290 0 291 0;
#X connect 291 0 87 0;
#X connect 292 0 293 0;
#X connect 292 1 298 0;
#X connect 294 0 295 0;
#X connect 296 0 297 0;
#X connect 297 0 87 0;
#X connect 298 0 299 0;
#X connect 298 1 304 0;
#X connect 300 0 301 0;
#X connect 302 0 303 0;
#X connect 303 0 87 0;
#X connect 304 0 305 0;
#X connect 304 1 310 0;
#X connect 306 0 307 0;
#X connect 308 0 309 0;
#X connect 309 0 87 0;
#X connect 310 0 311 0;
#X connect 310 1 316 0;
#X connect 312 0 313 0;
#X connect 314 0 315 0;
#X connect 315 0 87 0;
#X connect 316 0 317 0;
#X connect 316 1 322 0;
#X connect 318 0 319 0;
#X connect 320 0 321 0;
#X connect 321 0 87 0;
#X connect 322 0 323 0;
#X connect 322 1 328 0;
#X connect 324 0 325 0;
#X connect 326 0 327 0;
#X connect 327 0 87 0;
#X connect 328 0 329 0;
#X connect 328 1 334 0;
#X connect 330 0 331 0;
#X connect 332 0 333 0;
#X connect 333 0 87 0;
#X connect 334 0 335 0;
#X connect 334 1 340 0;
#X connect 336 0 337 0;
#X connect 338 0 339 0;
#X connect 339 0 87 0;
#X connect 340 0 341 0;
#X connect 340 1 346 0;
#X connect 342 0 343 0;
#X connect 344 0 345 0;
#X connect 345 0 87 0;
#X connect 346 0 347 0;
#X connect 346 1 352 0;
#X connect 348 0 349 0;
#X connect 350 0 351 0;
#X connect 351 0 87 0;
#X connect 352 0 353 0;
#X connect 352 1 358 0;
#X connect 354 0 355 0;
#X connect 356 0 357 0;
#X connect 357 0 87 0;
#X connect 358 0 359 0;
#X connect 358 1 364 0;
#X connect 360 0 361 0;
#X connect 362 0 363 0;
#X connect 363 0 87 0;
#X connect 364 0 365 0;
#X connect 364 1 370 0;
#X connect 366 0 367 0;
#X connect 368 0 369 0;
#X connect 369 0 87 0;
#X connect 370 0 371 0;
#X connect 370 1 376 0;
#X connect 372 0 373 0;
#X connect 374 0 375 0;
#X connect 375 0 87 0;
#X connect 376 0 377 0;
#X connect 376 1 382 0;
#X connect 378 0 379 0;
#X connect 380 0 381 0;
#X connect 381 0 87 0;
#X connect 382 0 383 0;
#X connect 382 1 388 0;
#X connect 384 0 385 0;
#X connect 386 0 387 0;
#X connect 387 0 87 0;
#X connect 388 0 389 0;
#X connect 388 1 394 0;
#X connect 390 0 391 0;
#X connect 392 0 393 0;
#X connect 393 0 87 0;
#X connect 394 0 395 0;
#X connect 394 1 400 0;
#X connect 396 0 397 0;
#X connect 398 0 399 0;
#X connect 399 0 87 0;
#X connect 400 0 401 0;
#X connect 400 1 406 0;
#X connect 402 0 403 0;
#X connect 404 0 405 0;
#X connect 405 0 87 0;
#X connect 406 0 407 0;
#X connect 406 1 412 0;
#X connect 408 0 409 0;
#X connect 410 0 411 0;
#X connect 411 0 87 0;
#X connect 412 0 413 0;
#X connect 412 1 418 0;
#X connect 414 0 415 0;
#X connect 416 0 417 0;
#X connect 417 0 87 0;
#X connect 418 0 419 0;
#X connect 418 1 424 0;
#X connect 420 0 421 0;
#X connect 422 0 423 0;
#X connect 423 0 87 0;
#X connect 424 0 425 0;
#X connect 424 1 430 0;
#X connect 426 0 427 0;
#X connect 428 0 429 0;
#X connect 429 0 87 0;
#X connect 430 0 431 0;
#X connect 430 1 436 0;
#X connect 432 0 433 0;
#X connect 434 0 435 0;
#X connect 435 0 87 0;
#X connect 436 0 437 0;
#X connect 436 1 442 0;
#X connect 438 0 439 0;
#X connect 440 0 441 0;
#X connect 441 0 87 0;
#X connect 442 0 443 0;
#X connect 442 1 448 0;
#X connect 444 0 445 0;
#X connect 446 0 447 0;
#X connect 447 0 87 0;
#X connect 448 0 449 0;
#X connect 448 1 454 0;
#X connect 450 0 451 0;
#X connect 452 0 453 0;
#X connect 453 0 87 0;
#X connect 454 0 455 0;
#X connect 454 1 460 0;
#X connect 456 0 457 0;
#X connect 458 0 459 0;
#X connect 459 0 87 0;
#X connect 460 0 461 0;
#X connect 460 1 466 0;
#X connect 462 0 463 0;
#X connect 464 0 465 0;
#X connect 465 0 87 0;
#X connect 466 0 467 0;
#X connect 466 1 472 0;
#X connect 468 0 469 0;
#X connect 470 0 471 0;
#X connect 471 0 87 0;
#X connect 472 0 473 0;
#X connect 472 1 478 0;
#X connect 474 0 475 0;
#X connect 476 0 477 0;
#X connect 477 0 87 0;
#X connect 478 0 479 0;
#X coords 0 -1 1 1 420 260 1 0 0;
