#N canvas 315 95 347 518 10;
#X obj 158 229 sig~;
#X obj 106 114 hsl 41 15 0 127 0 0 empty empty empty 2 -8 0 10 -262144
-1 -1 4000 1;
#X obj 127 155 / 127;
#X floatatom 129 177 5 0 0 0 - - -;
#X obj 133 44 loadbang;
#X obj 120 424 *~;
#X obj 173 423 *~;
#X obj 14 11 inlet~;
#X obj 131 461 outlet~;
#X obj 194 461 outlet~;
#X obj 118 10 inlet;
#X obj 59 11 inlet~;
#X msg 147 68 127;
#X connect 0 0 5 1;
#X connect 0 0 6 1;
#X connect 1 0 2 0;
#X connect 2 0 3 0;
#X connect 3 0 0 0;
#X connect 4 0 12 0;
#X connect 5 0 8 0;
#X connect 6 0 9 0;
#X connect 7 0 5 0;
#X connect 10 0 1 0;
#X connect 11 0 6 0;
#X connect 12 0 1 0;
#X coords 0 -1 1 1 52 32 1 100 100;
