#N canvas 453 125 792 662 10;
#X obj 56 111 nbx 5 14 -1e+037 1e+037 0 0 empty empty empty 0 -8 0
10 -262144 -1 -1 0.438596 256;
#X obj 53 217 phasor~;
#X obj 115 326 tabread4~ record1;
#X obj 114 300 *~;
#X obj 77 251 +~;
#X obj 76 275 wrap~;
#X obj 388 146 abs~;
#X obj 438 78 noise~;
#X obj 387 123 samphold~;
#X obj 225 325 tabread4~ env-1;
#X text 289 297 envelope;
#X obj 237 298 *~ 1024;
#X obj 114 374 *~;
#X obj 56 85 receive readspeed;
#X obj 217 -174 receive splices;
#X obj 296 251 receive bufferdim;
#X obj 430 348 abs~;
#X obj 411 294 noise~;
#X obj 430 324 samphold~;
#X obj 366 294 sig~ 1;
#X obj 415 380 -~;
#X obj 196 447 throw~ dsgran2;
#X obj 103 447 throw~ dsgran1;
#X obj 132 416 *~;
#X obj 214 416 *~;
#X text 110 218 phasor the read the grains;
#X text 468 292 panning;
#X obj 53 194 *~;
#X obj 69 168 +~ 1;
#X obj 69 141 receive pitchshift;
#X obj 316 44 line~;
#X msg 335 12 0;
#X obj 335 -9 threshold~ 1 0 1 0;
#X obj 298 77 +~;
#X text 361 47 line for read the grains - jump position;
#X obj 296 -68 metro;
#X obj 283 -115 loadbang;
#X msg 285 -93 1;
#X obj 253 -140 nbx 5 14 1 1000 0 0 empty empty grain_dimension_ms
0 -8 0 10 -262144 -1 -1 175.7 256;
#X msg 293 14 1 \$1;
#X obj 281 -11 +;
#X msg 278 -37 0;
#X obj 346 -116 random 1000;
#X obj 409 -139 receive clock;
#X connect 0 0 27 0;
#X connect 1 0 4 0;
#X connect 2 0 12 0;
#X connect 3 0 2 0;
#X connect 4 0 5 0;
#X connect 5 0 3 0;
#X connect 6 0 4 1;
#X connect 7 0 8 0;
#X connect 8 0 6 0;
#X connect 9 0 12 1;
#X connect 11 0 9 0;
#X connect 12 0 23 0;
#X connect 12 0 24 0;
#X connect 13 0 0 0;
#X connect 14 0 38 0;
#X connect 15 0 3 1;
#X connect 16 0 20 1;
#X connect 16 0 24 1;
#X connect 17 0 18 0;
#X connect 18 0 16 0;
#X connect 19 0 20 0;
#X connect 20 0 23 1;
#X connect 23 0 22 0;
#X connect 24 0 21 0;
#X connect 27 0 1 0;
#X connect 28 0 27 1;
#X connect 29 0 28 0;
#X connect 30 0 32 0;
#X connect 30 0 33 0;
#X connect 31 0 30 0;
#X connect 32 0 31 0;
#X connect 33 0 8 1;
#X connect 33 0 11 0;
#X connect 33 0 18 1;
#X connect 35 0 41 0;
#X connect 35 0 42 0;
#X connect 36 0 37 0;
#X connect 37 0 35 0;
#X connect 38 0 40 1;
#X connect 39 0 30 0;
#X connect 40 0 39 0;
#X connect 41 0 40 0;
#X connect 42 0 35 1;
#X connect 43 0 42 1;
#X coords 0 662 1 661 180 80 0;
