#N canvas 496 0 739 808 10;
#X obj 89 78 inlet;
#X obj 107 313 + 1;
#X obj 155 290 + 1;
#X obj 123 353 nbx 5 14 -1e+037 1e+037 0 0 empty empty current_count
0 -8 0 10 -262144 -1 -1 0 256;
#X obj 110 288 f;
#X obj 135 245 t b;
#X msg 275 402 stop;
#X obj 42 78 inlet~;
#X symbolatom 105 139 0 0 0 0 - - -;
#X msg 124 402 open \$1 \, start;
#X obj 105 121 tgl 15 0 empty empty rec_on/off 17 7 0 10 -262144 -1
-1 0 1;
#X obj 122 216 bng 12 250 50 0 empty empty rec 17 7 0 10 -262144 -1
-1;
#X obj 165 216 bng 12 250 50 0 empty empty stop 17 7 0 10 -262144 -1
-1;
#X obj 165 176 sel 0;
#X obj 212 176 sel 1;
#X obj 275 426 t b;
#X obj 43 454 writesf~ 1;
#X obj 245 672 nbx 5 14 -1e+037 1e+037 0 0 empty empty empty 0 -8 0
10 -262144 -1 -1 0 256;
#X obj 320 586 soundfiler;
#X obj 267 484 pack f f;
#X obj 267 506 unpack f f;
#X obj 498 590 print;
#X obj 340 531 nbx 5 14 -1e+037 1e+037 0 0 empty empty current_count
0 -8 0 10 -262144 -1 -1 0 256;
#X obj 267 452 del 100;
#X obj 134 374 makefilename record-%d.wav;
#X msg 340 553 read -resize record-\$1.wav record1;
#X obj 242 586 samplerate~;
#X obj 245 614 nbx 5 14 -1e+037 1e+037 0 0 empty empty empty 0 -8 0
10 -262144 -1 -1 44100 256;
#X obj 224 553 loadbang;
#X obj 245 646 /;
#X obj 206 554 bng 15 250 50 0 empty empty empty 17 7 0 10 -262144
-1 -1;
#X obj 245 693 phasor~;
#X obj 244 740 tabread4~ record1;
#X obj 245 718 *~;
#X obj 320 612 t b f f;
#X obj 245 767 outlet~;
#N canvas 0 0 450 300 (subpatch) 0;
#X array record1 100 float 3;
#A 0 0 0 0 0 0 0 0 0 0 0 0 0 0 0 0 0 0 0 0 0 0 0 0 0 0 0 0 0 0 0 0
0 0 0 0 0 0 0 0 0 0 0 0 0 0 0 0 0 0 0 0 0 0 0 0 0 0 0 0 0 0 0 0 0 0
0 0 0 0 0 0 0 0 0 0 0 0 0 0 0 0 0 0 0 0 0 0 0 0 0 0 0 0 0 0 0 0 0 0
0;
#X coords 0 1 99 -1 200 140 1;
#X restore 273 207 graph;
#X text 209 99 Data Storage Looper;
#X connect 0 0 10 0;
#X connect 1 0 3 0;
#X connect 2 0 4 1;
#X connect 3 0 19 1;
#X connect 3 0 24 0;
#X connect 4 0 2 0;
#X connect 4 0 1 0;
#X connect 5 0 4 0;
#X connect 6 0 15 0;
#X connect 6 0 16 0;
#X connect 7 0 16 0;
#X connect 9 0 16 0;
#X connect 10 0 13 0;
#X connect 10 0 14 0;
#X connect 11 0 5 0;
#X connect 12 0 6 0;
#X connect 13 0 12 0;
#X connect 14 0 11 0;
#X connect 15 0 23 0;
#X connect 17 0 31 0;
#X connect 18 0 34 0;
#X connect 19 0 20 0;
#X connect 20 1 22 0;
#X connect 22 0 25 0;
#X connect 23 0 19 0;
#X connect 24 0 9 0;
#X connect 24 0 8 0;
#X connect 25 0 21 0;
#X connect 25 0 18 0;
#X connect 26 0 27 0;
#X connect 27 0 29 0;
#X connect 28 0 26 0;
#X connect 29 0 17 0;
#X connect 30 0 26 0;
#X connect 30 0 18 0;
#X connect 31 0 33 0;
#X connect 32 0 35 0;
#X connect 33 0 32 0;
#X connect 34 0 29 0;
#X connect 34 1 29 1;
#X connect 34 2 33 1;
#X coords 0 -1 1 1 100 60 1 100 100;
