#N canvas 101 251 1026 585 12;
#X obj 466 278 qlist;
#X obj 400 229 t b;
#X obj 408 252 t b;
#X msg 415 276 print;
#X msg 394 204 read matrix\$1.txt;
#X obj 394 129 mod 20;
#X obj 394 102 float;
#X obj 276 105 bng 16 250 50 0 empty empty scenes -46 6 0 12 -262144
-66577 -66577;
#X obj 446 102 + 1;
#X floatatom 394 180 5 0 0 1 count_from_1_to_(mod) - -;
#X obj 394 155 + 1;
#X text 432 226 read text file(number).txt;
#X text 512 277 print and send text to messages;
#X obj 156 149 tgl 15 0 empty empty empty 17 7 0 10 -262144 -1 -1 0
1;
#X obj 102 36 inlet~;
#X obj 386 742 outlet~;
#X obj 243 539 *~;
#X obj 176 149 tgl 15 0 empty empty empty 17 7 0 10 -262144 -1 -1 0
1;
#X obj 263 564 *~;
#X obj 195 149 tgl 15 0 empty empty empty 17 7 0 10 -262144 -1 -1 0
1;
#X obj 282 591 *~;
#X obj 215 149 tgl 15 0 empty empty empty 17 7 0 10 -262144 -1 -1 0
1;
#X obj 302 615 *~;
#X obj 236 149 tgl 15 0 empty empty empty 17 7 0 10 -262144 -1 -1 0
1;
#X obj 323 639 *~;
#X obj 256 149 tgl 15 0 empty empty empty 17 7 0 10 -262144 -1 -1 0
1;
#X obj 343 664 *~;
#X obj 275 149 tgl 15 0 empty empty empty 17 7 0 10 -262144 -1 -1 0
1;
#X obj 362 691 *~;
#X obj 295 149 tgl 15 0 empty empty empty 17 7 0 10 -262144 -1 -1 0
1;
#X obj 382 715 *~;
#X obj 261 492 r A1;
#X obj 281 517 r B1;
#X obj 300 544 r C1;
#X obj 320 568 r D1;
#X obj 341 592 r E1;
#X obj 361 617 r F1;
#X obj 380 644 r G1;
#X obj 400 668 r H1;
#X obj 101 64 s~ Asig;
#X obj 168 35 inlet~;
#X obj 167 63 s~ Bsig;
#X obj 233 35 inlet~;
#X obj 299 34 inlet~;
#X obj 232 63 s~ Csig;
#X obj 298 62 s~ Dsig;
#X obj 365 34 inlet~;
#X obj 431 33 inlet~;
#X obj 496 33 inlet~;
#X obj 562 32 inlet~;
#X obj 364 62 s~ Esig;
#X obj 430 61 s~ Fsig;
#X obj 495 61 s~ Gsig;
#X obj 561 60 s~ Hsig;
#X obj 206 564 r~ Bsig;
#X obj 226 592 r~ Csig;
#X obj 244 616 r~ Dsig;
#X obj 266 640 r~ Esig;
#X obj 286 664 r~ Fsig;
#X obj 304 691 r~ Gsig;
#X obj 326 715 r~ Hsig;
#X obj 156 174 tgl 15 0 empty empty empty 17 7 0 10 -262144 -1 -1 0
1;
#X obj 609 741 outlet~;
#X obj 466 538 *~;
#X obj 176 174 tgl 15 0 empty empty empty 17 7 0 10 -262144 -1 -1 0
1;
#X obj 486 563 *~;
#X obj 195 174 tgl 15 0 empty empty empty 17 7 0 10 -262144 -1 -1 0
1;
#X obj 505 590 *~;
#X obj 215 174 tgl 15 0 empty empty empty 17 7 0 10 -262144 -1 -1 0
1;
#X obj 525 614 *~;
#X obj 236 174 tgl 15 0 empty empty empty 17 7 0 10 -262144 -1 -1 0
1;
#X obj 546 638 *~;
#X obj 256 174 tgl 15 0 empty empty empty 17 7 0 10 -262144 -1 -1 0
1;
#X obj 566 663 *~;
#X obj 275 174 tgl 15 0 empty empty empty 17 7 0 10 -262144 -1 -1 0
1;
#X obj 585 690 *~;
#X obj 295 174 tgl 15 0 empty empty empty 17 7 0 10 -262144 -1 -1 0
1;
#X obj 605 714 *~;
#X obj 429 563 r~ Bsig;
#X obj 449 591 r~ Csig;
#X obj 467 615 r~ Dsig;
#X obj 489 639 r~ Esig;
#X obj 509 663 r~ Fsig;
#X obj 527 690 r~ Gsig;
#X obj 549 714 r~ Hsig;
#X obj 156 200 tgl 15 0 empty empty empty 17 7 0 10 -262144 -1 -1 0
1;
#X obj 852 740 outlet~;
#X obj 709 537 *~;
#X obj 176 200 tgl 15 0 empty empty empty 17 7 0 10 -262144 -1 -1 0
1;
#X obj 729 562 *~;
#X obj 195 200 tgl 15 0 empty empty empty 17 7 0 10 -262144 -1 -1 0
1;
#X obj 748 589 *~;
#X obj 215 200 tgl 15 0 empty empty empty 17 7 0 10 -262144 -1 -1 0
1;
#X obj 768 613 *~;
#X obj 236 200 tgl 15 0 empty empty empty 17 7 0 10 -262144 -1 -1 0
1;
#X obj 789 637 *~;
#X obj 256 200 tgl 15 0 empty empty empty 17 7 0 10 -262144 -1 -1 0
1;
#X obj 809 662 *~;
#X obj 275 200 tgl 15 0 empty empty empty 17 7 0 10 -262144 -1 -1 0
1;
#X obj 828 689 *~;
#X obj 295 200 tgl 15 0 empty empty empty 17 7 0 10 -262144 -1 -1 0
1;
#X obj 848 713 *~;
#X obj 672 562 r~ Bsig;
#X obj 692 590 r~ Csig;
#X obj 710 614 r~ Dsig;
#X obj 732 638 r~ Esig;
#X obj 752 662 r~ Fsig;
#X obj 770 689 r~ Gsig;
#X obj 792 713 r~ Hsig;
#X obj 156 225 tgl 15 0 empty empty empty 17 7 0 10 -262144 -1 -1 0
1;
#X obj 1075 739 outlet~;
#X obj 932 536 *~;
#X obj 176 225 tgl 15 0 empty empty empty 17 7 0 10 -262144 -1 -1 0
1;
#X obj 952 561 *~;
#X obj 195 225 tgl 15 0 empty empty empty 17 7 0 10 -262144 -1 -1 0
1;
#X obj 971 588 *~;
#X obj 215 225 tgl 15 0 empty empty empty 17 7 0 10 -262144 -1 -1 0
1;
#X obj 991 612 *~;
#X obj 236 225 tgl 15 0 empty empty empty 17 7 0 10 -262144 -1 -1 0
1;
#X obj 1012 636 *~;
#X obj 256 225 tgl 15 0 empty empty empty 17 7 0 10 -262144 -1 -1 0
1;
#X obj 1032 661 *~;
#X obj 275 225 tgl 15 0 empty empty empty 17 7 0 10 -262144 -1 -1 0
1;
#X obj 1051 688 *~;
#X obj 295 225 tgl 15 0 empty empty empty 17 7 0 10 -262144 -1 -1 0
1;
#X obj 1071 712 *~;
#X obj 895 561 r~ Bsig;
#X obj 915 589 r~ Csig;
#X obj 933 613 r~ Dsig;
#X obj 955 637 r~ Esig;
#X obj 975 661 r~ Fsig;
#X obj 993 688 r~ Gsig;
#X obj 1015 712 r~ Hsig;
#X obj 156 250 tgl 15 0 empty empty empty 17 7 0 10 -262144 -1 -1 0
1;
#X obj 1332 740 outlet~;
#X obj 1189 537 *~;
#X obj 176 250 tgl 15 0 empty empty empty 17 7 0 10 -262144 -1 -1 0
1;
#X obj 1209 562 *~;
#X obj 195 250 tgl 15 0 empty empty empty 17 7 0 10 -262144 -1 -1 0
1;
#X obj 1228 589 *~;
#X obj 215 250 tgl 15 0 empty empty empty 17 7 0 10 -262144 -1 -1 0
1;
#X obj 1248 613 *~;
#X obj 236 250 tgl 15 0 empty empty empty 17 7 0 10 -262144 -1 -1 0
1;
#X obj 1269 637 *~;
#X obj 256 250 tgl 15 0 empty empty empty 17 7 0 10 -262144 -1 -1 0
1;
#X obj 1289 662 *~;
#X obj 275 250 tgl 15 0 empty empty empty 17 7 0 10 -262144 -1 -1 0
1;
#X obj 1308 689 *~;
#X obj 295 250 tgl 15 0 empty empty empty 17 7 0 10 -262144 -1 -1 0
1;
#X obj 1328 713 *~;
#X obj 1152 562 r~ Bsig;
#X obj 1172 590 r~ Csig;
#X obj 1190 614 r~ Dsig;
#X obj 1212 638 r~ Esig;
#X obj 1232 662 r~ Fsig;
#X obj 1250 689 r~ Gsig;
#X obj 1272 713 r~ Hsig;
#X obj 156 275 tgl 15 0 empty empty empty 17 7 0 10 -262144 -1 -1 0
1;
#X obj 1555 739 outlet~;
#X obj 1412 536 *~;
#X obj 176 275 tgl 15 0 empty empty empty 17 7 0 10 -262144 -1 -1 0
1;
#X obj 1432 561 *~;
#X obj 195 275 tgl 15 0 empty empty empty 17 7 0 10 -262144 -1 -1 0
1;
#X obj 1451 588 *~;
#X obj 215 275 tgl 15 0 empty empty empty 17 7 0 10 -262144 -1 -1 0
1;
#X obj 1471 612 *~;
#X obj 236 275 tgl 15 0 empty empty empty 17 7 0 10 -262144 -1 -1 0
1;
#X obj 1492 636 *~;
#X obj 256 275 tgl 15 0 empty empty empty 17 7 0 10 -262144 -1 -1 0
1;
#X obj 1512 661 *~;
#X obj 275 275 tgl 15 0 empty empty empty 17 7 0 10 -262144 -1 -1 0
1;
#X obj 1531 688 *~;
#X obj 295 275 tgl 15 0 empty empty empty 17 7 0 10 -262144 -1 -1 0
1;
#X obj 1551 712 *~;
#X obj 1375 561 r~ Bsig;
#X obj 1395 589 r~ Csig;
#X obj 1413 613 r~ Dsig;
#X obj 1435 637 r~ Esig;
#X obj 1455 661 r~ Fsig;
#X obj 1473 688 r~ Gsig;
#X obj 1495 712 r~ Hsig;
#X obj 156 301 tgl 15 0 empty empty empty 17 7 0 10 -262144 -1 -1 0
1;
#X obj 1798 738 outlet~;
#X obj 1655 535 *~;
#X obj 176 301 tgl 15 0 empty empty empty 17 7 0 10 -262144 -1 -1 0
1;
#X obj 1675 560 *~;
#X obj 195 301 tgl 15 0 empty empty empty 17 7 0 10 -262144 -1 -1 0
1;
#X obj 1694 587 *~;
#X obj 215 301 tgl 15 0 empty empty empty 17 7 0 10 -262144 -1 -1 0
1;
#X obj 1714 611 *~;
#X obj 236 301 tgl 15 0 empty empty empty 17 7 0 10 -262144 -1 -1 0
1;
#X obj 1735 635 *~;
#X obj 256 301 tgl 15 0 empty empty empty 17 7 0 10 -262144 -1 -1 0
1;
#X obj 1755 660 *~;
#X obj 275 301 tgl 15 0 empty empty empty 17 7 0 10 -262144 -1 -1 0
1;
#X obj 1774 687 *~;
#X obj 295 301 tgl 15 0 empty empty empty 17 7 0 10 -262144 -1 -1 0
1;
#X obj 1794 711 *~;
#X obj 1618 560 r~ Bsig;
#X obj 1638 588 r~ Csig;
#X obj 1656 612 r~ Dsig;
#X obj 1678 636 r~ Esig;
#X obj 1698 660 r~ Fsig;
#X obj 1716 687 r~ Gsig;
#X obj 1738 711 r~ Hsig;
#X obj 156 326 tgl 15 0 empty empty empty 17 7 0 10 -262144 -1 -1 0
1;
#X obj 2021 737 outlet~;
#X obj 1878 534 *~;
#X obj 176 326 tgl 15 0 empty empty empty 17 7 0 10 -262144 -1 -1 0
1;
#X obj 1898 559 *~;
#X obj 195 326 tgl 15 0 empty empty empty 17 7 0 10 -262144 -1 -1 0
1;
#X obj 1917 586 *~;
#X obj 215 326 tgl 15 0 empty empty empty 17 7 0 10 -262144 -1 -1 0
1;
#X obj 1937 610 *~;
#X obj 236 326 tgl 15 0 empty empty empty 17 7 0 10 -262144 -1 -1 0
1;
#X obj 1958 634 *~;
#X obj 256 326 tgl 15 0 empty empty empty 17 7 0 10 -262144 -1 -1 0
1;
#X obj 1978 659 *~;
#X obj 275 326 tgl 15 0 empty empty empty 17 7 0 10 -262144 -1 -1 0
1;
#X obj 1997 686 *~;
#X obj 295 326 tgl 15 0 empty empty empty 17 7 0 10 -262144 -1 -1 0
1;
#X obj 2017 710 *~;
#X obj 1841 559 r~ Bsig;
#X obj 1861 587 r~ Csig;
#X obj 1879 611 r~ Dsig;
#X obj 1901 635 r~ Esig;
#X obj 1921 659 r~ Fsig;
#X obj 1939 686 r~ Gsig;
#X obj 1961 710 r~ Hsig;
#X obj 484 491 r A2;
#X obj 504 516 r B2;
#X obj 523 543 r C2;
#X obj 543 567 r D2;
#X obj 564 591 r E2;
#X obj 584 616 r F2;
#X obj 603 643 r G2;
#X obj 623 667 r H2;
#X obj 727 490 r A3;
#X obj 747 515 r B3;
#X obj 766 542 r C3;
#X obj 786 566 r D3;
#X obj 807 590 r E3;
#X obj 827 615 r F3;
#X obj 846 642 r G3;
#X obj 866 666 r H3;
#X obj 950 489 r A4;
#X obj 970 514 r B4;
#X obj 989 541 r C4;
#X obj 1009 565 r D4;
#X obj 1030 589 r E4;
#X obj 1050 614 r F4;
#X obj 1069 641 r G4;
#X obj 1089 665 r H4;
#X obj 1207 490 r A5;
#X obj 1227 515 r B5;
#X obj 1246 542 r C5;
#X obj 1266 566 r D5;
#X obj 1287 590 r E5;
#X obj 1307 615 r F5;
#X obj 1326 642 r G5;
#X obj 1346 666 r H5;
#X obj 1430 489 r A6;
#X obj 1450 514 r B6;
#X obj 1469 541 r C6;
#X obj 1489 565 r D6;
#X obj 1510 589 r E6;
#X obj 1530 614 r F6;
#X obj 1549 641 r G6;
#X obj 1569 665 r H6;
#X obj 1673 488 r A7;
#X obj 1693 513 r B7;
#X obj 1712 540 r C7;
#X obj 1732 564 r D7;
#X obj 1753 588 r E7;
#X obj 1773 613 r F7;
#X obj 1792 640 r G7;
#X obj 1812 664 r H7;
#X obj 1896 487 r A8;
#X obj 1916 512 r B8;
#X obj 1935 539 r C8;
#X obj 1955 563 r D8;
#X obj 1976 587 r E8;
#X obj 1996 612 r F8;
#X obj 2015 639 r G8;
#X obj 2035 663 r H8;
#X text 159 126 1;
#X text 179 126 2;
#X text 198 126 3;
#X text 217 126 4;
#X text 238 125 5;
#X text 258 125 6;
#X text 277 125 7;
#X text 296 125 8;
#X text 110 148 out 1;
#X text 110 172 out 2;
#X text 110 199 out 3;
#X text 110 223 out 4;
#X text 111 249 out 5;
#X text 111 273 out 6;
#X text 111 300 out 7;
#X text 111 324 out 8;
#X floatatom 295 104 2 0 0 0 - - -;
#X text 110 126 inputs;
#X obj 194 539 r~ Asig;
#X obj 417 538 r~ Asig;
#X obj 660 537 r~ Asig;
#X obj 883 536 r~ Asig;
#X obj 1140 537 r~ Asig;
#X obj 1363 536 r~ Asig;
#X obj 1606 535 r~ Asig;
#X obj 1829 534 r~ Asig;
#X connect 1 0 0 0;
#X connect 1 0 2 0;
#X connect 2 0 3 0;
#X connect 3 0 0 0;
#X connect 4 0 0 0;
#X connect 4 0 1 0;
#X connect 5 0 10 0;
#X connect 6 0 8 0;
#X connect 6 0 5 0;
#X connect 7 0 6 0;
#X connect 8 0 6 1;
#X connect 9 0 4 0;
#X connect 9 0 301 0;
#X connect 10 0 9 0;
#X connect 13 0 16 1;
#X connect 14 0 39 0;
#X connect 16 0 15 0;
#X connect 17 0 18 1;
#X connect 18 0 15 0;
#X connect 19 0 20 1;
#X connect 20 0 15 0;
#X connect 21 0 22 1;
#X connect 22 0 15 0;
#X connect 23 0 24 1;
#X connect 24 0 15 0;
#X connect 25 0 26 1;
#X connect 26 0 15 0;
#X connect 27 0 28 1;
#X connect 28 0 15 0;
#X connect 29 0 30 1;
#X connect 30 0 15 0;
#X connect 31 0 13 0;
#X connect 32 0 17 0;
#X connect 33 0 19 0;
#X connect 34 0 21 0;
#X connect 35 0 23 0;
#X connect 36 0 25 0;
#X connect 37 0 27 0;
#X connect 38 0 29 0;
#X connect 40 0 41 0;
#X connect 42 0 44 0;
#X connect 43 0 45 0;
#X connect 46 0 50 0;
#X connect 47 0 51 0;
#X connect 48 0 52 0;
#X connect 49 0 53 0;
#X connect 54 0 18 0;
#X connect 55 0 20 0;
#X connect 56 0 22 0;
#X connect 57 0 24 0;
#X connect 58 0 26 0;
#X connect 59 0 28 0;
#X connect 60 0 30 0;
#X connect 61 0 63 1;
#X connect 63 0 62 0;
#X connect 64 0 65 1;
#X connect 65 0 62 0;
#X connect 66 0 67 1;
#X connect 67 0 62 0;
#X connect 68 0 69 1;
#X connect 69 0 62 0;
#X connect 70 0 71 1;
#X connect 71 0 62 0;
#X connect 72 0 73 1;
#X connect 73 0 62 0;
#X connect 74 0 75 1;
#X connect 75 0 62 0;
#X connect 76 0 77 1;
#X connect 77 0 62 0;
#X connect 78 0 65 0;
#X connect 79 0 67 0;
#X connect 80 0 69 0;
#X connect 81 0 71 0;
#X connect 82 0 73 0;
#X connect 83 0 75 0;
#X connect 84 0 77 0;
#X connect 85 0 87 1;
#X connect 87 0 86 0;
#X connect 88 0 89 1;
#X connect 89 0 86 0;
#X connect 90 0 91 1;
#X connect 91 0 86 0;
#X connect 92 0 93 1;
#X connect 93 0 86 0;
#X connect 94 0 95 1;
#X connect 95 0 86 0;
#X connect 96 0 97 1;
#X connect 97 0 86 0;
#X connect 98 0 99 1;
#X connect 99 0 86 0;
#X connect 100 0 101 1;
#X connect 101 0 86 0;
#X connect 102 0 89 0;
#X connect 103 0 91 0;
#X connect 104 0 93 0;
#X connect 105 0 95 0;
#X connect 106 0 97 0;
#X connect 107 0 99 0;
#X connect 108 0 101 0;
#X connect 109 0 111 1;
#X connect 111 0 110 0;
#X connect 112 0 113 1;
#X connect 113 0 110 0;
#X connect 114 0 115 1;
#X connect 115 0 110 0;
#X connect 116 0 117 1;
#X connect 117 0 110 0;
#X connect 118 0 119 1;
#X connect 119 0 110 0;
#X connect 120 0 121 1;
#X connect 121 0 110 0;
#X connect 122 0 123 1;
#X connect 123 0 110 0;
#X connect 124 0 125 1;
#X connect 125 0 110 0;
#X connect 126 0 113 0;
#X connect 127 0 115 0;
#X connect 128 0 117 0;
#X connect 129 0 119 0;
#X connect 130 0 121 0;
#X connect 131 0 123 0;
#X connect 132 0 125 0;
#X connect 133 0 135 1;
#X connect 135 0 134 0;
#X connect 136 0 137 1;
#X connect 137 0 134 0;
#X connect 138 0 139 1;
#X connect 139 0 134 0;
#X connect 140 0 141 1;
#X connect 141 0 134 0;
#X connect 142 0 143 1;
#X connect 143 0 134 0;
#X connect 144 0 145 1;
#X connect 145 0 134 0;
#X connect 146 0 147 1;
#X connect 147 0 134 0;
#X connect 148 0 149 1;
#X connect 149 0 134 0;
#X connect 150 0 137 0;
#X connect 151 0 139 0;
#X connect 152 0 141 0;
#X connect 153 0 143 0;
#X connect 154 0 145 0;
#X connect 155 0 147 0;
#X connect 156 0 149 0;
#X connect 157 0 159 1;
#X connect 159 0 158 0;
#X connect 160 0 161 1;
#X connect 161 0 158 0;
#X connect 162 0 163 1;
#X connect 163 0 158 0;
#X connect 164 0 165 1;
#X connect 165 0 158 0;
#X connect 166 0 167 1;
#X connect 167 0 158 0;
#X connect 168 0 169 1;
#X connect 169 0 158 0;
#X connect 170 0 171 1;
#X connect 171 0 158 0;
#X connect 172 0 173 1;
#X connect 173 0 158 0;
#X connect 174 0 161 0;
#X connect 175 0 163 0;
#X connect 176 0 165 0;
#X connect 177 0 167 0;
#X connect 178 0 169 0;
#X connect 179 0 171 0;
#X connect 180 0 173 0;
#X connect 181 0 183 1;
#X connect 183 0 182 0;
#X connect 184 0 185 1;
#X connect 185 0 182 0;
#X connect 186 0 187 1;
#X connect 187 0 182 0;
#X connect 188 0 189 1;
#X connect 189 0 182 0;
#X connect 190 0 191 1;
#X connect 191 0 182 0;
#X connect 192 0 193 1;
#X connect 193 0 182 0;
#X connect 194 0 195 1;
#X connect 195 0 182 0;
#X connect 196 0 197 1;
#X connect 197 0 182 0;
#X connect 198 0 185 0;
#X connect 199 0 187 0;
#X connect 200 0 189 0;
#X connect 201 0 191 0;
#X connect 202 0 193 0;
#X connect 203 0 195 0;
#X connect 204 0 197 0;
#X connect 205 0 207 1;
#X connect 207 0 206 0;
#X connect 208 0 209 1;
#X connect 209 0 206 0;
#X connect 210 0 211 1;
#X connect 211 0 206 0;
#X connect 212 0 213 1;
#X connect 213 0 206 0;
#X connect 214 0 215 1;
#X connect 215 0 206 0;
#X connect 216 0 217 1;
#X connect 217 0 206 0;
#X connect 218 0 219 1;
#X connect 219 0 206 0;
#X connect 220 0 221 1;
#X connect 221 0 206 0;
#X connect 222 0 209 0;
#X connect 223 0 211 0;
#X connect 224 0 213 0;
#X connect 225 0 215 0;
#X connect 226 0 217 0;
#X connect 227 0 219 0;
#X connect 228 0 221 0;
#X connect 229 0 61 0;
#X connect 230 0 64 0;
#X connect 231 0 66 0;
#X connect 232 0 68 0;
#X connect 233 0 70 0;
#X connect 234 0 72 0;
#X connect 235 0 74 0;
#X connect 236 0 76 0;
#X connect 237 0 85 0;
#X connect 238 0 88 0;
#X connect 239 0 90 0;
#X connect 240 0 92 0;
#X connect 241 0 94 0;
#X connect 242 0 96 0;
#X connect 243 0 98 0;
#X connect 244 0 100 0;
#X connect 245 0 109 0;
#X connect 246 0 112 0;
#X connect 247 0 114 0;
#X connect 248 0 116 0;
#X connect 249 0 118 0;
#X connect 250 0 120 0;
#X connect 251 0 122 0;
#X connect 252 0 124 0;
#X connect 253 0 133 0;
#X connect 254 0 136 0;
#X connect 255 0 138 0;
#X connect 256 0 140 0;
#X connect 257 0 142 0;
#X connect 258 0 144 0;
#X connect 259 0 146 0;
#X connect 260 0 148 0;
#X connect 261 0 157 0;
#X connect 262 0 160 0;
#X connect 263 0 162 0;
#X connect 264 0 164 0;
#X connect 265 0 166 0;
#X connect 266 0 168 0;
#X connect 267 0 170 0;
#X connect 268 0 172 0;
#X connect 269 0 181 0;
#X connect 270 0 184 0;
#X connect 271 0 186 0;
#X connect 272 0 188 0;
#X connect 273 0 190 0;
#X connect 274 0 192 0;
#X connect 275 0 194 0;
#X connect 276 0 196 0;
#X connect 277 0 205 0;
#X connect 278 0 208 0;
#X connect 279 0 210 0;
#X connect 280 0 212 0;
#X connect 281 0 214 0;
#X connect 282 0 216 0;
#X connect 283 0 218 0;
#X connect 284 0 220 0;
#X connect 303 0 16 0;
#X connect 304 0 63 0;
#X connect 305 0 87 0;
#X connect 306 0 111 0;
#X connect 307 0 135 0;
#X connect 308 0 159 0;
#X connect 309 0 183 0;
#X connect 310 0 207 0;
#X coords 0 -1 1 1 220 248 1 100 100;
