#N canvas 380 135 913 269 12;
#X obj 16 44 inlet;
#X obj 213 41 inlet;
#X obj 106 188 outlet~;
#X text 17 18 frequency of the phasor;
#X text 211 15 frequency of the scattering;
#X floatatom 16 89 5 0 0 0 - - -;
#X msg 213 112 /splicephasor/freqscattering \$1;
#X msg 17 113 /splicephasor/frequency \$1;
#X msg 444 111 /splicephasor/samples \$1;
#X msg 627 111 /splicephasor/varseed \$1;
#X obj 17 152 splicephasor~;
#X floatatom 213 88 5 0 0 0 - - -;
#X floatatom 444 84 5 0 0 0 - - -;
#X floatatom 628 87 5 0 0 0 - - -;
#X obj 444 38 inlet;
#X obj 628 38 inlet;
#X text 441 14 samples of the scatter;
#X text 626 12 use a number for change the random seed;
#X connect 0 0 5 0;
#X connect 1 0 11 0;
#X connect 5 0 7 0;
#X connect 6 0 10 0;
#X connect 7 0 10 0;
#X connect 8 0 10 0;
#X connect 9 0 10 0;
#X connect 10 1 2 0;
#X connect 11 0 6 0;
#X connect 12 0 8 0;
#X connect 13 0 9 0;
#X connect 14 0 12 0;
#X connect 15 0 13 0;
