#N canvas -6 56 1171 656 10;
#X msg 369 108 \; pd dsp 1;
#X msg 296 108 \; pd dsp 0;
#X text 313 86 DSP ON - DSP OFF;
#X obj 638 53 slll.player;
#X obj 628 125 slll.amp;
#X obj 389 543 dac~;
#X obj 121 257 slll.wrapgrain;
#X obj 121 405 slll.amp;
#X obj 327 257 slll.wrapgrain;
#X obj 327 405 slll.amp;
#X obj 542 257 slll.wrapgrain;
#X obj 542 405 slll.amp;
#X obj 748 257 slll.wrapgrain;
#X obj 748 405 slll.amp;
#X connect 3 0 4 0;
#X connect 3 0 6 0;
#X connect 3 0 8 0;
#X connect 3 1 4 1;
#X connect 3 1 10 0;
#X connect 3 1 12 0;
#X connect 4 0 5 0;
#X connect 4 1 5 1;
#X connect 6 0 7 0;
#X connect 7 0 5 0;
#X connect 8 0 9 0;
#X connect 9 0 5 0;
#X connect 10 0 11 0;
#X connect 11 0 5 1;
#X connect 12 0 13 0;
#X connect 13 0 5 1;
