#N canvas 0 0 208 284 10;
#X obj 20 -14 inlet;
#X obj 69 -13 inlet;
#X obj 21 212 outlet;
#X obj 54 146 +;
#X msg 72 89 1;
#X obj 47 58 t b;
#X obj 95 58 t b;
#X msg 120 88 1;
#X obj 88 117 * -1;
#X obj 33 34 bng 15 250 50 0 empty empty + 4 -6 0 12 -262144 -1 -1
;
#X obj 81 33 bng 15 250 50 0 empty empty - 4 -6 0 12 -262144 -1 -1
;
#X obj 36 183 nbx 5 14 -1e+037 1e+037 0 0 empty empty current_count
0 -8 0 10 -262144 -1 -1 0 256;
#X obj 19 146 f;
#X connect 0 0 9 0;
#X connect 1 0 10 0;
#X connect 3 0 12 1;
#X connect 4 0 3 1;
#X connect 5 0 4 0;
#X connect 5 0 12 0;
#X connect 6 0 7 0;
#X connect 6 0 12 0;
#X connect 7 0 8 0;
#X connect 8 0 3 1;
#X connect 9 0 5 0;
#X connect 10 0 6 0;
#X connect 11 0 2 0;
#X connect 12 0 3 0;
#X connect 12 0 11 0;
