#N canvas 709 56 458 559 10;
#X obj 121 35 inlet;
#X obj 128 464 writesf~ 2;
#X obj 105 320 + 1;
#X obj 155 290 + 1;
#X obj 123 353 nbx 5 14 -1e+037 1e+037 0 0 empty empty current_count
0 -8 0 10 -262144 -1 -1 0 256;
#X obj 120 290 f;
#X obj 124 374 makefilename rec%d.wav;
#X obj 121 266 bng 15 250 50 0 empty empty empty 17 7 0 10 -262144
-1 -1;
#X obj 122 243 t b;
#X msg 275 402 stop;
#X obj 33 35 inlet~;
#X obj 76 35 inlet~;
#X symbolatom 111 134 0 0 0 0 - - -;
#X msg 124 402 open \$1 \, start;
#X obj 110 109 tgl 15 0 empty empty rec_on/off 17 7 0 10 -262144 -1
-1 0 1;
#X obj 122 216 bng 12 250 50 0 empty empty rec 17 7 0 10 -262144 -1
-1;
#X obj 165 216 bng 12 250 50 0 empty empty stop 17 7 0 10 -262144 -1
-1;
#X obj 165 176 sel 0;
#X obj 212 176 sel 1;
#X connect 0 0 14 0;
#X connect 2 0 4 0;
#X connect 3 0 5 1;
#X connect 4 0 6 0;
#X connect 5 0 3 0;
#X connect 5 0 2 0;
#X connect 6 0 13 0;
#X connect 6 0 12 0;
#X connect 7 0 5 0;
#X connect 8 0 7 0;
#X connect 9 0 1 0;
#X connect 10 0 1 0;
#X connect 11 0 1 1;
#X connect 13 0 1 0;
#X connect 14 0 17 0;
#X connect 14 0 18 0;
#X connect 15 0 8 0;
#X connect 16 0 9 0;
#X connect 17 0 16 0;
#X connect 18 0 15 0;
#X coords 0 -1 1 1 100 60 1 100 100;
