#N canvas 554 71 421 377 12;
#X floatatom 68 60 0 0 0 0 - - -;
#X obj 68 170 sig~;
#X obj 211 208 noise~;
#X obj 68 148 / 100000;
#X obj 223 232 abs~;
#X obj 224 254 expr~ $v1 > $v2;
#X obj 192 288 *~;
#X msg 68 103 100000;
#X obj 68 125 -;
#X obj 68 83 t b f;
#X obj 67 213 noise~;
#X obj 79 237 abs~;
#X obj 80 259 expr~ $v1 > $v2;
#X obj 48 293 *~;
#X obj 68 29 inlet;
#X obj 47 322 outlet~;
#X obj 191 320 outlet~;
#X obj 116 29 loadbang;
#X connect 0 0 9 0;
#X connect 1 0 5 1;
#X connect 1 0 12 1;
#X connect 2 0 4 0;
#X connect 2 0 6 1;
#X connect 3 0 1 0;
#X connect 4 0 5 0;
#X connect 5 0 6 0;
#X connect 6 0 16 0;
#X connect 7 0 8 0;
#X connect 8 0 3 0;
#X connect 9 0 7 0;
#X connect 9 1 8 1;
#X connect 10 0 11 0;
#X connect 10 0 13 1;
#X connect 11 0 12 0;
#X connect 12 0 13 0;
#X connect 13 0 15 0;
#X connect 14 0 0 0;
#X connect 17 0 0 0;
