#N canvas 299 339 416 396 10;
#X text 37 -448 audio input;
#X obj 39 -428 inlet~;
#X obj 210 -131 outlet~;
#X text 38 -113 recording the signal;
#X text 259 -133 out;
#X text 177 -223 read the table;
#X obj 137 -203 vd~ \$0-recplay;
#X text 37 -96 with delwrite we write samples values into a space in
the memory continuosly;
#X obj 186 -429 inlet;
#X obj 231 -250 nbx 5 14 -1e+037 1e+037 0 0 empty empty empty 0 -8
0 10 -262144 -1 -1 282.5 256;
#X obj 160 -278 metro;
#X obj 235 -391 loadbang;
#X msg 203 -354 1;
#X obj 175 -256 bng 15 250 50 0 empty empty empty 17 7 0 10 -262144
-1 -1;
#X obj 156 -227 +~;
#X obj 39 -132 delwrite~ \$0-recplay 1000;
#X obj 196 -308 random 1000;
#X obj 119 -320 *~ 500;
#X obj 234 -276 * 0.5;
#X text 184 -448 feedback;
#X obj 99 -157 *~;
#X msg 83 -351 0;
#X obj 156 -400 / 1000;
#X obj 135 -350 sig~ 1;
#X connect 1 0 15 0;
#X connect 6 0 2 0;
#X connect 6 0 20 0;
#X connect 8 0 22 0;
#X connect 9 0 14 1;
#X connect 10 0 13 0;
#X connect 10 0 16 0;
#X connect 11 0 12 0;
#X connect 11 0 16 0;
#X connect 11 0 21 0;
#X connect 12 0 10 0;
#X connect 14 0 6 0;
#X connect 16 0 10 1;
#X connect 16 0 18 0;
#X connect 17 0 14 0;
#X connect 18 0 9 0;
#X connect 20 0 15 0;
#X connect 21 0 20 1;
#X connect 22 0 20 1;
#X connect 23 0 17 0;
#X coords 0 396 1 395 120 200 0;
