#N canvas 228 132 824 539 12;
#X floatatom 379 140 5 0 0 0 - - -;
#X floatatom 166 140 5 0 0 0 - - -;
#X obj 166 204 scatterphasors~;
#X msg 379 164 /scatterphasors/freqscattering \$1;
#X msg 166 164 /scatterphasors/frequency \$1;
#X obj 166 112 inlet;
#X obj 379 110 inlet;
#X obj 166 261 outlet~;
#X obj 224 261 outlet~;
#X obj 282 261 outlet~;
#X obj 340 261 outlet~;
#X obj 398 261 outlet~;
#X obj 456 261 outlet~;
#X obj 514 261 outlet~;
#X obj 572 261 outlet~;
#X text 167 86 frequency of the phasor;
#X text 377 84 frequency of the scattering;
#X text 168 289 8 decorrelated phasors;
#X connect 0 0 3 0;
#X connect 1 0 4 0;
#X connect 2 0 7 0;
#X connect 2 1 8 0;
#X connect 2 2 9 0;
#X connect 2 3 10 0;
#X connect 2 5 11 0;
#X connect 2 6 12 0;
#X connect 2 7 13 0;
#X connect 2 8 14 0;
#X connect 3 0 2 0;
#X connect 4 0 2 0;
#X connect 5 0 1 0;
#X connect 6 0 0 0;
