#N canvas 183 120 867 646 10;
#X text 44 5 some ideas from the michael gerzon studio sound reverb
articles of 1971 and 1972;
#X obj 149 74 inlet~;
#X obj 203 75 inlet~;
#X obj 292 227 +~;
#X obj 162 229 +~;
#X obj 428 98 * 0.01;
#X obj 427 122 lop~ 3;
#X obj 308 199 *~;
#X obj 177 205 *~;
#X obj 414 209 *~;
#X obj 548 198 *~;
#X obj 68 227 cos;
#X obj 100 224 sin;
#X obj 68 177 wrap;
#X floatatom 101 242 5 0 0 0 - - -;
#X floatatom 69 249 5 0 0 0 - - -;
#X floatatom 73 128 5 0 0 0 - - -;
#X obj 70 201 * 6.28319;
#X obj 176 379 *~;
#X obj 203 380 *~;
#X obj 176 402 -~;
#X obj 289 383 *~;
#X obj 315 384 *~;
#X obj 298 403 +~;
#X obj 425 383 *~;
#X obj 451 385 *~;
#X obj 427 405 -~;
#X obj 532 387 *~;
#X obj 561 387 *~;
#X obj 534 407 +~;
#X obj 110 515 *~;
#X obj 135 516 *~;
#X obj 118 543 -~;
#X obj 235 515 *~;
#X obj 261 515 *~;
#X obj 236 541 +~;
#X obj 365 521 *~;
#X obj 392 522 *~;
#X obj 368 549 -~;
#X obj 493 520 *~;
#X obj 517 521 *~;
#X obj 492 547 +~;
#X obj 45 339 wrap;
#X floatatom 67 414 5 0 0 0 - - -;
#X floatatom 33 414 5 0 0 0 - - -;
#X floatatom 45 288 5 0 0 0 - - -;
#X obj 47 363 * 6.28319;
#X obj 191 612 outlet~;
#X obj 444 614 outlet~;
#X obj 545 251 rpole~;
#X obj 547 232 *~;
#X obj 415 257 rpole~;
#X obj 416 234 *~;
#X obj 551 127 - 1;
#X obj 551 149 * -1;
#X obj 70 151 / 360;
#X obj 46 313 / 360;
#X obj 45 390 cos;
#X obj 75 390 sin;
#X obj 172 580 *~ 1;
#X obj 428 584 *~ 1;
#X msg 42 99 45;
#X obj 46 74 loadbang;
#X text 36 33 4 prime number delay lines with ratios between 0.5 and
1 47 \, 67 \, 101 \, 137;
#X obj 162 253 delwrite~ \$0-a 500;
#X obj 171 301 delread~ \$0-a 40.635;
#X obj 293 252 delwrite~ \$0-b 500;
#X obj 289 301 delread~ \$0-b 62.346;
#X obj 415 281 delwrite~ \$0-c 500;
#X obj 415 303 delread~ \$0-c 99.203;
#X obj 535 281 delwrite~ \$0-d 500;
#X obj 534 302 delread~ \$0-d 135;
#X obj 427 54 loadbang;
#X msg 427 75 80;
#X obj 513 55 loadbang;
#X msg 514 77 0.36;
#X obj 514 100 t f f f;
#X connect 1 0 4 0;
#X connect 2 0 3 0;
#X connect 3 0 66 0;
#X connect 4 0 64 0;
#X connect 5 0 6 0;
#X connect 6 0 7 1;
#X connect 6 0 8 1;
#X connect 6 0 9 0;
#X connect 6 0 10 0;
#X connect 7 0 3 1;
#X connect 8 0 4 1;
#X connect 9 0 52 0;
#X connect 10 0 50 0;
#X connect 11 0 15 0;
#X connect 12 0 14 0;
#X connect 13 0 17 0;
#X connect 14 0 19 1;
#X connect 14 0 21 1;
#X connect 14 0 25 1;
#X connect 14 0 27 1;
#X connect 15 0 18 1;
#X connect 15 0 22 1;
#X connect 15 0 24 1;
#X connect 15 0 28 1;
#X connect 16 0 55 0;
#X connect 17 0 11 0;
#X connect 17 0 12 0;
#X connect 18 0 20 0;
#X connect 19 0 20 1;
#X connect 20 0 30 0;
#X connect 20 0 33 0;
#X connect 21 0 23 0;
#X connect 22 0 23 1;
#X connect 23 0 36 0;
#X connect 23 0 39 0;
#X connect 24 0 26 0;
#X connect 25 0 26 1;
#X connect 26 0 31 0;
#X connect 26 0 34 0;
#X connect 27 0 29 0;
#X connect 28 0 29 1;
#X connect 29 0 40 0;
#X connect 29 0 37 0;
#X connect 30 0 32 0;
#X connect 31 0 32 1;
#X connect 32 0 8 0;
#X connect 32 0 59 0;
#X connect 33 0 35 0;
#X connect 34 0 35 1;
#X connect 35 0 9 1;
#X connect 35 0 59 0;
#X connect 36 0 38 0;
#X connect 37 0 38 1;
#X connect 38 0 7 0;
#X connect 38 0 60 0;
#X connect 39 0 41 0;
#X connect 40 0 41 1;
#X connect 41 0 10 1;
#X connect 41 0 60 0;
#X connect 42 0 46 0;
#X connect 43 0 31 1;
#X connect 43 0 33 1;
#X connect 43 0 37 1;
#X connect 43 0 39 1;
#X connect 44 0 30 1;
#X connect 44 0 34 1;
#X connect 44 0 36 1;
#X connect 44 0 40 1;
#X connect 45 0 56 0;
#X connect 46 0 57 0;
#X connect 46 0 58 0;
#X connect 49 0 70 0;
#X connect 50 0 49 0;
#X connect 51 0 68 0;
#X connect 52 0 51 0;
#X connect 53 0 54 0;
#X connect 54 0 52 1;
#X connect 54 0 50 1;
#X connect 55 0 13 0;
#X connect 56 0 42 0;
#X connect 57 0 44 0;
#X connect 58 0 43 0;
#X connect 59 0 47 0;
#X connect 60 0 48 0;
#X connect 61 0 16 0;
#X connect 61 0 45 0;
#X connect 62 0 61 0;
#X connect 65 0 18 0;
#X connect 65 0 21 0;
#X connect 67 0 19 0;
#X connect 67 0 22 0;
#X connect 69 0 24 0;
#X connect 69 0 27 0;
#X connect 71 0 25 0;
#X connect 71 0 28 0;
#X connect 72 0 73 0;
#X connect 73 0 5 0;
#X connect 74 0 75 0;
#X connect 75 0 76 0;
#X connect 76 0 51 1;
#X connect 76 1 49 1;
#X connect 76 2 53 0;
