#N canvas 110 19 609 652 10;
#X obj 363 160 metro;
#X obj 350 105 loadbang;
#X msg 352 127 1;
#X obj 147 429 *~;
#X obj 192 296 line~;
#X msg 297 255 0 \$1;
#X msg 341 186 1;
#X obj 349 216 t b;
#X floatatom 227 183 5 0 0 0 - - -;
#X obj 232 210 pack 0 0;
#X obj 232 232 unpack 0 0;
#X obj 82 352 *~;
#X floatatom 74 318 5 0 0 0 - - -;
#X obj 93 378 osc~;
#X obj 124 354 noise~;
#X obj 293 408 sig~;
#X floatatom 286 361 5 0 0 0 - - -;
#X obj 128 472 *~;
#X obj 146 551 clip~ -1 1;
#X obj 120 104 hsl 60 15 0 4000 0 0 empty empty osc -2 -8 0 10 -262144
-1 -1 0 1;
#X obj 293 385 / 1000;
#X obj 48 105 hsl 60 15 0 4000 0 0 empty empty pitch -2 -8 0 10 -262144
-1 -1 0 1;
#X obj 210 428 *~;
#X obj 368 409 sig~;
#X floatatom 361 362 5 0 0 0 - - -;
#X obj 368 386 / 1000;
#X obj 194 105 hsl 60 15 0 4000 0 0 empty empty noise -2 -8 0 10 -262144
-1 -1 0 1;
#X obj 218 506 *~;
#X obj 246 462 *~;
#X obj -22 105 hsl 60 15 0 4000 0 0 empty empty decay -2 -8 0 10 -262144
-1 -1 0 1;
#X obj 216 159 / 40;
#X obj 271 105 hsl 60 15 1000 1 1 0 empty empty metro -2 -8 0 10 -262144
-1 -1 0 1;
#X obj 131 584 outlet~;
#X obj 189 23 inlet;
#X obj 228 23 inlet;
#X obj 268 23 inlet;
#X obj 307 23 inlet;
#X obj 347 23 inlet;
#X connect 0 0 6 0;
#X connect 1 0 2 0;
#X connect 2 0 0 0;
#X connect 3 0 17 0;
#X connect 4 0 3 1;
#X connect 4 0 11 0;
#X connect 4 0 28 1;
#X connect 5 0 4 0;
#X connect 6 0 4 0;
#X connect 6 0 7 0;
#X connect 7 0 9 0;
#X connect 8 0 9 1;
#X connect 9 0 10 0;
#X connect 10 1 5 0;
#X connect 11 0 13 0;
#X connect 12 0 11 1;
#X connect 13 0 3 0;
#X connect 13 0 22 1;
#X connect 14 0 22 0;
#X connect 15 0 17 1;
#X connect 16 0 20 0;
#X connect 17 0 18 0;
#X connect 18 0 32 0;
#X connect 19 0 16 0;
#X connect 20 0 15 0;
#X connect 21 0 12 0;
#X connect 22 0 28 0;
#X connect 23 0 27 1;
#X connect 24 0 25 0;
#X connect 25 0 23 0;
#X connect 26 0 24 0;
#X connect 27 0 18 0;
#X connect 28 0 27 0;
#X connect 29 0 30 0;
#X connect 30 0 8 0;
#X connect 31 0 0 1;
#X connect 33 0 29 0;
#X connect 34 0 21 0;
#X connect 35 0 19 0;
#X connect 36 0 26 0;
#X connect 37 0 31 0;
