#N canvas 551 406 405 302 12;
#X obj 41 33 inlet;
#X obj 203 24 inlet~;
#X obj 146 25 inlet~;
#X obj 212 189 *~;
#X obj 69 97 *;
#X obj 41 64 t f f;
#X msg 263 66 1 \$1;
#X obj 263 94 -;
#X obj 154 187 *~;
#X obj 153 216 +~;
#X obj 155 274 outlet~;
#X obj 162 242 *~ 0.5;
#X obj 263 153 line~;
#X msg 263 124 \$1 100;
#X obj 322 154 line~;
#X msg 322 125 \$1 100;
#X connect 0 0 5 0;
#X connect 1 0 3 0;
#X connect 2 0 8 0;
#X connect 3 0 9 1;
#X connect 4 0 6 0;
#X connect 4 0 15 0;
#X connect 5 0 4 0;
#X connect 5 1 4 1;
#X connect 6 0 7 0;
#X connect 7 0 13 0;
#X connect 8 0 9 0;
#X connect 9 0 11 0;
#X connect 11 0 10 0;
#X connect 12 0 8 1;
#X connect 13 0 12 0;
#X connect 14 0 3 1;
#X connect 15 0 14 0;
