#N canvas -8 -8 1920 997 10;
#X text 166 29 .ds - Data Storage;
#X obj 358 8 inlet;
#X obj 415 348 + 1;
#X obj 463 325 + 1;
#X obj 431 388 nbx 5 14 -1e+037 1e+037 0 0 empty empty current_count
0 -8 0 10 -262144 -1 -1 6 256;
#X obj 418 323 f;
#X obj 443 280 t b;
#X msg 583 437 stop;
#X obj 311 8 inlet~;
#X msg 432 437 open \$1 \, start;
#X obj 7 75 tgl 15 0 empty empty rec_on/off 17 7 0 10 -262144 -1 -1
0 1;
#X obj 430 251 bng 12 250 50 0 empty empty rec 17 7 0 10 -262144 -1
-1;
#X obj 473 251 bng 12 250 50 0 empty empty stop 17 7 0 10 -262144 -1
-1;
#X obj 473 211 sel 0;
#X obj 520 211 sel 1;
#X obj 583 461 t b;
#X obj 351 489 writesf~ 1;
#X obj 685 526 nbx 5 14 -1e+037 1e+037 0 0 empty empty empty 0 -8 0
10 -262144 -1 -1 5.2 256;
#X obj 760 440 soundfiler;
#X obj 575 519 pack f f;
#X obj 575 541 unpack f f;
#X obj 898 441 print;
#X obj 632 364 nbx 5 14 -1e+037 1e+037 0 0 empty empty current_count
0 -8 0 10 -262144 -1 -1 6 256;
#X obj 575 487 del 100;
#X obj 442 409 makefilename record-%d.wav;
#X msg 724 407 read -resize record-\$1.wav record1;
#X obj 682 440 samplerate~;
#X obj 685 468 nbx 5 14 -1e+037 1e+037 0 0 empty empty empty 0 -8 0
10 -262144 -1 -1 44100 256;
#X obj 664 407 loadbang;
#X obj 685 500 /;
#X obj 646 408 bng 15 250 50 0 empty empty empty 17 7 0 10 -262144
-1 -1;
#X obj 685 547 phasor~;
#X obj 731 672 tabread4~ record1;
#X obj 730 646 *~;
#X obj 709 727 outlet~;
#X obj 728 592 +~;
#X obj 700 617 wrap~;
#X obj 7 57 nbx 5 14 -1e+037 1e+037 0 0 empty empty splice_Hz 0 -8
0 10 -262144 -1 -1 529 256;
#X obj 409 8 inlet;
#X obj 893 672 tabread4~ record1;
#X obj 892 646 *~;
#X obj 871 727 outlet~;
#X obj 890 592 +~;
#X obj 862 617 wrap~;
#X obj 1290 362 abs~;
#X obj 1324 295 noise~;
#X obj 1279 334 samphold~;
#X obj 1163 180 phasor~;
#X obj 746 465 t b f f f;
#X obj 7 93 bng 15 250 50 0 empty empty change_file 17 7 0 10 -262144
-1 -1;
#X obj 914 281 f;
#X obj 948 280 + 1;
#X obj 916 331 + 1;
#X obj 916 308 mod;
#X obj 933 365 nbx 5 14 -1e+037 1e+037 0 0 empty empty current_count
0 -8 0 10 -262144 -1 -1 0 256;
#X obj 1332 399 samphold~;
#X obj 65 56 tgl 15 0 empty empty sync-async 17 7 0 10 -262144 -1 -1
1 1;
#X obj 1404 329 loadbang;
#X msg 1404 350 1;
#X obj 1404 394 -;
#X obj 1439 367 t b f;
#X obj 1260 430 nbx 5 14 -1e+037 1e+037 0 0 empty empty empty 0 -8
0 10 -262144 -1 -1 0 256;
#X obj 1328 464 *~;
#X obj 1319 431 nbx 5 14 -1e+037 1e+037 0 0 empty empty empty 0 -8
0 10 -262144 -1 -1 1 256;
#X obj 1383 466 *~;
#X text 1274 230 Splice synchronous - asynchronous;
#X obj 1371 491 abs~;
#X obj 1328 516 +~;
#X obj 1052 364 abs~;
#X obj 1086 297 noise~;
#X obj 1041 336 samphold~;
#X obj 1094 401 samphold~;
#X obj 1090 466 *~;
#X obj 1145 468 *~;
#X obj 1133 493 abs~;
#X obj 1090 518 +~;
#X text 5 19 TIME SHUFFLING;
#N canvas 0 0 450 300 (subpatch) 0;
#X array record1 99200 float 2;
#X coords 0 1 99200 -1 160 120 1 0 0;
#X restore 8 124 graph;
#X symbolatom 128 98 0 0 0 2 audio_file - -;
#X obj 1163 211 expr~ $v1 > $v2;
#X obj 1249 188 sig~;
#X floatatom 1250 140 5 0 0 0 - - -;
#X obj 1255 117 hsl 128 15 1 999 0 0 empty empty empty -2 -8 0 10 -262144
-1 -1 300 1;
#X obj 1017 611 *~ -1;
#X obj 1017 634 +~ 1;
#X obj 725 697 *~;
#X obj 885 697 *~;
#X obj 1249 163 / 1000;
#X connect 1 0 10 0;
#X connect 2 0 4 0;
#X connect 3 0 5 1;
#X connect 4 0 19 1;
#X connect 4 0 24 0;
#X connect 5 0 3 0;
#X connect 5 0 2 0;
#X connect 6 0 5 0;
#X connect 7 0 15 0;
#X connect 7 0 16 0;
#X connect 8 0 16 0;
#X connect 9 0 16 0;
#X connect 10 0 13 0;
#X connect 10 0 14 0;
#X connect 11 0 6 0;
#X connect 12 0 7 0;
#X connect 13 0 12 0;
#X connect 14 0 11 0;
#X connect 15 0 23 0;
#X connect 17 0 31 0;
#X connect 18 0 48 0;
#X connect 19 0 20 0;
#X connect 20 1 22 0;
#X connect 20 1 53 1;
#X connect 22 0 25 0;
#X connect 23 0 19 0;
#X connect 24 0 9 0;
#X connect 24 0 78 0;
#X connect 25 0 21 0;
#X connect 25 0 18 0;
#X connect 26 0 27 0;
#X connect 27 0 29 0;
#X connect 28 0 26 0;
#X connect 29 0 17 0;
#X connect 30 0 26 0;
#X connect 30 0 18 0;
#X connect 31 0 35 0;
#X connect 31 0 42 0;
#X connect 32 0 85 0;
#X connect 33 0 32 0;
#X connect 35 0 36 0;
#X connect 36 0 33 0;
#X connect 37 0 47 0;
#X connect 38 0 37 0;
#X connect 39 0 86 0;
#X connect 40 0 39 0;
#X connect 42 0 43 0;
#X connect 43 0 40 0;
#X connect 44 0 55 1;
#X connect 44 0 62 0;
#X connect 45 0 46 0;
#X connect 45 0 55 0;
#X connect 46 0 44 0;
#X connect 47 0 79 0;
#X connect 48 0 29 0;
#X connect 48 1 29 1;
#X connect 48 2 33 1;
#X connect 48 3 40 1;
#X connect 49 0 50 0;
#X connect 50 0 51 0;
#X connect 50 0 53 0;
#X connect 51 0 50 1;
#X connect 52 0 54 0;
#X connect 53 0 52 0;
#X connect 54 0 25 0;
#X connect 55 0 64 0;
#X connect 56 0 60 0;
#X connect 56 0 63 0;
#X connect 57 0 58 0;
#X connect 58 0 59 0;
#X connect 59 0 61 0;
#X connect 60 0 59 0;
#X connect 60 1 59 1;
#X connect 61 0 62 1;
#X connect 61 0 72 1;
#X connect 62 0 67 0;
#X connect 63 0 64 1;
#X connect 63 0 73 1;
#X connect 64 0 66 0;
#X connect 66 0 67 1;
#X connect 67 0 42 1;
#X connect 68 0 71 1;
#X connect 68 0 72 0;
#X connect 69 0 70 0;
#X connect 69 0 71 0;
#X connect 70 0 68 0;
#X connect 71 0 73 0;
#X connect 72 0 75 0;
#X connect 73 0 74 0;
#X connect 74 0 75 1;
#X connect 75 0 35 1;
#X connect 79 0 70 1;
#X connect 79 0 46 1;
#X connect 79 0 83 0;
#X connect 80 0 79 1;
#X connect 81 0 87 0;
#X connect 82 0 81 0;
#X connect 83 0 84 0;
#X connect 84 0 85 1;
#X connect 84 0 86 1;
#X connect 85 0 34 0;
#X connect 86 0 41 0;
#X connect 87 0 80 0;
#X coords 0 -1 1 1 300 260 1 0 0;
