#N canvas 453 125 680 615 10;
#X obj 195 122 nbx 5 14 -1e+037 1e+037 0 0 empty empty empty 0 -8 0
10 -262144 -1 -1 0.376601 256;
#X obj 53 170 phasor~;
#X obj 115 279 tabread4~ record1;
#X obj 114 253 *~;
#X obj 77 204 +~;
#X obj 76 228 wrap~;
#X obj 294 4 nbx 5 14 -1e+037 1e+037 0 0 empty empty splice_Hz 0 -8
0 10 -262144 -1 -1 8 256;
#X obj 347 43 phasor~;
#X obj 388 99 abs~;
#X obj 424 42 noise~;
#X obj 387 76 samphold~;
#X obj 225 278 tabread4~ env-1;
#X text 289 250 envelope;
#X obj 237 251 *~ 1024;
#X obj 114 327 *~;
#X obj 334 -69 random;
#X obj 372 -41 /;
#X obj 195 96 receive readspeed;
#X obj 344 -157 receive bufferdim;
#X obj 234 -121 receive endrectrig;
#X obj 228 -68 receive splices;
#X obj 365 187 receive bufferdim;
#X obj 430 301 abs~;
#X obj 411 247 noise~;
#X obj 430 277 samphold~;
#X obj 366 247 sig~ 1;
#X obj 415 333 -~;
#X obj 196 400 throw~ dsgran2;
#X obj 103 400 throw~ dsgran1;
#X obj 132 369 *~;
#X obj 214 369 *~;
#X obj 359 -18 nbx 5 14 -1e+037 1e+037 0 0 empty empty empty 0 -8 0
10 -262144 -1 -1 0.234995 256;
#X obj 408 -100 nbx 5 14 -1e+037 1e+037 0 0 empty empty empty 0 -8
0 10 -262144 -1 -1 254912 256;
#X obj 369 -128 t b b f;
#X text 418 -11 read grain offset;
#X text 110 171 phasor the read the grains;
#X text 344 20 phasor for read the grains - jump position;
#X text 468 245 panning;
#X text 420 -23 when load buffer;
#X obj 53 147 *~;
#X obj 69 121 +~ 1;
#X obj 69 94 receive pitchshift;
#X text 339 -182 Splice synchronous;
#X obj 236 326 pow~;
#X obj 327 278 sig~;
#X obj 481 186 receive window;
#X obj 323 302 +~ 1;
#X connect 0 0 39 0;
#X connect 1 0 4 0;
#X connect 2 0 14 0;
#X connect 3 0 2 0;
#X connect 4 0 5 0;
#X connect 5 0 3 0;
#X connect 6 0 7 0;
#X connect 7 0 10 1;
#X connect 7 0 13 0;
#X connect 7 0 24 1;
#X connect 8 0 4 1;
#X connect 9 0 10 0;
#X connect 10 0 8 0;
#X connect 11 0 43 0;
#X connect 13 0 11 0;
#X connect 14 0 29 0;
#X connect 14 0 30 0;
#X connect 15 0 16 0;
#X connect 16 0 31 0;
#X connect 17 0 0 0;
#X connect 18 0 33 0;
#X connect 19 0 15 0;
#X connect 20 0 6 0;
#X connect 21 0 3 1;
#X connect 22 0 26 1;
#X connect 22 0 30 1;
#X connect 23 0 24 0;
#X connect 24 0 22 0;
#X connect 25 0 26 0;
#X connect 26 0 29 1;
#X connect 29 0 28 0;
#X connect 30 0 27 0;
#X connect 31 0 7 1;
#X connect 32 0 15 1;
#X connect 32 0 16 1;
#X connect 33 0 15 0;
#X connect 33 1 16 0;
#X connect 33 2 32 0;
#X connect 39 0 1 0;
#X connect 40 0 39 1;
#X connect 41 0 40 0;
#X connect 43 0 14 1;
#X connect 44 0 46 0;
#X connect 45 0 44 0;
#X connect 46 0 43 1;
#X coords 0 615 1 614 180 80 0;
