#N canvas 315 95 347 518 10;
#X obj 140 256 cos~;
#X obj 198 228 *~ 0.5;
#X obj 196 281 *~ -1;
#X obj 159 311 +~ 1;
#X obj 158 337 *~ 0.5;
#X obj 212 310 +~ 1;
#X obj 211 336 *~ 0.5;
#X obj 203 200 sig~;
#X obj 106 114 hsl 41 15 0 127 0 0 empty empty empty 2 -8 0 10 -262144
-1 -1 2000 1;
#X obj 127 155 / 127;
#X floatatom 129 177 5 0 0 0 - - -;
#X msg 147 68 63.5;
#X obj 133 44 loadbang;
#X obj 120 424 *~;
#X obj 173 423 *~;
#X obj 68 10 inlet~;
#X obj 14 11 inlet~;
#X obj 131 461 outlet~;
#X obj 194 461 outlet~;
#X obj 118 10 inlet;
#X connect 0 0 2 0;
#X connect 0 0 3 0;
#X connect 1 0 0 0;
#X connect 2 0 5 0;
#X connect 3 0 4 0;
#X connect 4 0 13 1;
#X connect 5 0 6 0;
#X connect 6 0 14 1;
#X connect 7 0 1 0;
#X connect 8 0 9 0;
#X connect 9 0 10 0;
#X connect 10 0 7 0;
#X connect 11 0 8 0;
#X connect 12 0 11 0;
#X connect 13 0 17 0;
#X connect 14 0 18 0;
#X connect 15 0 14 0;
#X connect 16 0 13 0;
#X connect 19 0 8 0;
#X coords 0 -1 1 1 52 32 1 100 100;
