#N canvas 0 0 1366 695 10;
#X obj 68 0 inlet~;
#X obj 116 -1 inlet~;
#X obj 268 188 +~;
#X obj 138 190 +~;
#X obj 284 160 *~;
#X obj 153 166 *~;
#X obj 392 131 *~;
#X obj 516 132 *~;
#X obj 44 188 cos;
#X obj 84 187 sin;
#X obj 44 138 wrap;
#X floatatom 93 223 5 0 0 0 - - -;
#X floatatom 53 224 5 0 0 0 - - -;
#X obj 46 162 * 6.28319;
#X obj 152 340 *~;
#X obj 179 341 *~;
#X obj 152 363 -~;
#X obj 265 344 *~;
#X obj 291 345 *~;
#X obj 274 364 +~;
#X obj 401 344 *~;
#X obj 427 346 *~;
#X obj 403 366 -~;
#X obj 508 348 *~;
#X obj 537 348 *~;
#X obj 510 368 +~;
#X obj 86 462 *~;
#X obj 111 463 *~;
#X obj 94 490 -~;
#X obj 211 462 *~;
#X obj 237 462 *~;
#X obj 212 488 +~;
#X obj 341 468 *~;
#X obj 368 469 *~;
#X obj 344 496 -~;
#X obj 469 467 *~;
#X obj 493 468 *~;
#X obj 468 494 +~;
#X floatatom 47 255 5 0 0 0 - - -;
#X floatatom 13 255 5 0 0 0 - - -;
#X obj 135 555 outlet~;
#X obj 389 555 outlet~;
#X obj 528 178 rpole~;
#X obj 528 154 *~;
#X obj 399 181 rpole~;
#X obj 400 155 *~;
#X obj 586 68 - 1;
#X obj 586 90 * -1;
#X obj 46 112 / 360;
#X obj 148 527 *~ 1;
#X obj 403 528 *~ 1;
#X obj 549 41 t f f f;
#X obj 138 214 delwrite~ a 1000;
#X obj 269 213 delwrite~ b 1000;
#X obj 383 215 delwrite~ c 1000;
#X obj 503 215 delwrite~ d 1000;
#X obj 363 -33 hsl 128 15 40 100 1 0 empty empty time_decay(0_to_frz)
-2 -8 0 10 -262144 -1 -1 0 1;
#X obj 655 161 vd~ a;
#X obj 796 160 vd~ b;
#X obj 935 157 vd~ c;
#X obj 1076 155 vd~ d;
#X obj 368 14 nbx 5 14 -1e+037 1e+037 0 0 empty empty empty 0 -8 0
10 -262144 -1 -1 0 256;
#X obj 200 -97 loadbang;
#X obj 357 36 lop~ 3;
#X obj 656 183 *~ 1;
#X obj 797 183 *~ 1;
#X obj 934 180 *~ 1;
#X obj 1077 179 *~ 1;
#X obj 640 -33 hsl 128 15 0 1000 0 0 empty empty delay_time_ms.(delay1)
-2 -8 0 10 -262144 -1 -1 1510 1;
#X obj 638 -6 nbx 5 14 -1e+037 1e+037 0 0 empty empty empty 0 -8 0
10 -262144 -1 -1 118.898 256;
#X obj 653 73 +~;
#X obj 654 95 wrap~;
#X obj 794 73 +~;
#X obj 795 95 wrap~;
#X obj 933 73 +~;
#X obj 934 95 wrap~;
#X obj 1074 73 +~;
#X obj 1075 95 wrap~;
#X obj 654 124 *~ 1000;
#X obj 795 123 *~ 1000;
#X obj 934 122 *~ 1000;
#X obj 1075 121 *~ 1000;
#X obj 502 -33 hsl 128 15 0 1000 0 0 empty empty absorption -2 -8 0
10 -262144 -1 -1 0 1;
#X obj 668 49 line~;
#X msg 668 27 \$1 1;
#X obj 777 -33 hsl 128 15 0 1000 0 0 empty empty delay_time_ms.(delay2)
-2 -8 0 10 -262144 -1 -1 1702 1;
#X obj 775 -6 nbx 5 14 -1e+037 1e+037 0 0 empty empty empty 0 -8 0
10 -262144 -1 -1 134.016 256;
#X obj 810 49 line~;
#X msg 810 27 \$1 1;
#X obj 914 -33 hsl 128 15 0 1000 0 0 empty empty delay_time_ms.(delay3)
-2 -8 0 10 -262144 -1 -1 1200 1;
#X obj 912 -6 nbx 5 14 -1e+037 1e+037 0 0 empty empty empty 0 -8 0
10 -262144 -1 -1 94.4882 256;
#X obj 948 49 line~;
#X msg 948 27 \$1 1;
#X obj 1051 -33 hsl 128 15 0 1000 0 0 empty empty delay_time_ms.(delay4)
-2 -8 0 10 -262144 -1 -1 1801 1;
#X obj 1049 -6 nbx 5 14 -1e+037 1e+037 0 0 empty empty empty 0 -8 0
10 -262144 -1 -1 141.811 256;
#X obj 1090 49 line~;
#X msg 1090 27 \$1 1;
#X obj 367 -7 / 100;
#X obj 507 15 nbx 5 14 -1e+037 1e+037 0 0 empty empty empty 0 -8 0
10 -262144 -1 -1 0 256;
#X obj 506 -6 / 1000;
#X obj 225 -33 hsl 128 15 0 360 0 0 empty empty spazialization(0-360°)
-2 -8 0 10 -262144 -1 -1 2822 1;
#X obj 229 -6 nbx 5 14 -1e+037 1e+037 0 0 empty empty empty 0 -8 0
10 -262144 -1 -1 79.9937 256;
#X msg 200 -75 80;
#X obj 1153 -111 loadbang;
#X msg 932 -82 118.876;
#X msg 995 -82 133.984;
#X msg 1059 -81 94.4872;
#X msg 1122 -81 141.791;
#X connect 0 0 3 0;
#X connect 1 0 2 0;
#X connect 2 0 53 0;
#X connect 3 0 52 0;
#X connect 4 0 2 1;
#X connect 5 0 3 1;
#X connect 6 0 45 0;
#X connect 7 0 43 0;
#X connect 8 0 12 0;
#X connect 8 0 39 0;
#X connect 9 0 11 0;
#X connect 9 0 38 0;
#X connect 10 0 13 0;
#X connect 11 0 15 1;
#X connect 11 0 17 1;
#X connect 11 0 21 1;
#X connect 11 0 23 1;
#X connect 12 0 14 1;
#X connect 12 0 18 1;
#X connect 12 0 20 1;
#X connect 12 0 24 1;
#X connect 13 0 8 0;
#X connect 13 0 9 0;
#X connect 14 0 16 0;
#X connect 15 0 16 1;
#X connect 16 0 26 0;
#X connect 16 0 29 0;
#X connect 17 0 19 0;
#X connect 18 0 19 1;
#X connect 19 0 32 0;
#X connect 19 0 35 0;
#X connect 20 0 22 0;
#X connect 21 0 22 1;
#X connect 22 0 27 0;
#X connect 22 0 30 0;
#X connect 23 0 25 0;
#X connect 24 0 25 1;
#X connect 25 0 36 0;
#X connect 25 0 33 0;
#X connect 26 0 28 0;
#X connect 27 0 28 1;
#X connect 28 0 5 0;
#X connect 28 0 49 0;
#X connect 29 0 31 0;
#X connect 30 0 31 1;
#X connect 31 0 6 1;
#X connect 31 0 49 0;
#X connect 32 0 34 0;
#X connect 33 0 34 1;
#X connect 34 0 4 0;
#X connect 34 0 50 0;
#X connect 35 0 37 0;
#X connect 36 0 37 1;
#X connect 37 0 7 1;
#X connect 37 0 50 0;
#X connect 38 0 27 1;
#X connect 38 0 29 1;
#X connect 38 0 33 1;
#X connect 38 0 35 1;
#X connect 39 0 26 1;
#X connect 39 0 30 1;
#X connect 39 0 32 1;
#X connect 39 0 36 1;
#X connect 42 0 55 0;
#X connect 43 0 42 0;
#X connect 44 0 54 0;
#X connect 45 0 44 0;
#X connect 46 0 47 0;
#X connect 47 0 45 1;
#X connect 47 0 43 1;
#X connect 48 0 10 0;
#X connect 49 0 40 0;
#X connect 50 0 41 0;
#X connect 51 0 44 1;
#X connect 51 1 42 1;
#X connect 51 2 46 0;
#X connect 56 0 97 0;
#X connect 57 0 64 0;
#X connect 58 0 65 0;
#X connect 59 0 66 0;
#X connect 60 0 67 0;
#X connect 61 0 63 0;
#X connect 62 0 102 0;
#X connect 63 0 4 1;
#X connect 63 0 5 1;
#X connect 63 0 6 0;
#X connect 63 0 7 0;
#X connect 64 0 14 0;
#X connect 64 0 17 0;
#X connect 65 0 15 0;
#X connect 65 0 18 0;
#X connect 66 0 20 0;
#X connect 66 0 23 0;
#X connect 67 0 21 0;
#X connect 67 0 24 0;
#X connect 68 0 69 0;
#X connect 69 0 84 0;
#X connect 70 0 71 0;
#X connect 71 0 78 0;
#X connect 72 0 73 0;
#X connect 73 0 79 0;
#X connect 74 0 75 0;
#X connect 75 0 80 0;
#X connect 76 0 77 0;
#X connect 77 0 81 0;
#X connect 78 0 57 0;
#X connect 79 0 58 0;
#X connect 80 0 59 0;
#X connect 81 0 60 0;
#X connect 82 0 99 0;
#X connect 83 0 70 1;
#X connect 84 0 83 0;
#X connect 85 0 86 0;
#X connect 86 0 88 0;
#X connect 87 0 72 1;
#X connect 88 0 87 0;
#X connect 89 0 90 0;
#X connect 90 0 92 0;
#X connect 91 0 74 1;
#X connect 92 0 91 0;
#X connect 93 0 94 0;
#X connect 94 0 96 0;
#X connect 95 0 76 1;
#X connect 96 0 95 0;
#X connect 97 0 61 0;
#X connect 98 0 51 0;
#X connect 99 0 98 0;
#X connect 100 0 101 0;
#X connect 101 0 48 0;
#X connect 102 0 100 0;
#X connect 103 0 104 0;
#X connect 103 0 105 0;
#X connect 103 0 106 0;
#X connect 103 0 107 0;
#X connect 104 0 68 0;
#X connect 105 0 85 0;
#X connect 106 0 89 0;
#X connect 107 0 93 0;
#X coords 0 -1 1 1 1200 40 1 100 -50;
